<svg width="55" height="40" viewBox="0 0 55 40" fill="none" xmlns="http://www.w3.org/2000/svg">
<path d="M19.9404 16.8094C19.7132 16.9074 19.4857 17.0115 19.2639 17.119C19.1859 17.1568 19.1161 17.2096 19.0585 17.2744C19.0009 17.3391 18.9567 17.4146 18.9282 17.4965C18.8998 17.5784 18.8878 17.6651 18.8929 17.7516C18.8979 17.8381 18.92 17.9228 18.9578 18.0008C18.9956 18.0788 19.0484 18.1486 19.1132 18.2062C19.1779 18.2638 19.2534 18.3081 19.3353 18.3365C19.4172 18.3649 19.5039 18.377 19.5904 18.3719C19.6769 18.3668 19.7616 18.3448 19.8396 18.3069C20.0441 18.208 20.254 18.1117 20.4634 18.021C20.6223 17.9504 20.7469 17.82 20.8102 17.6581C20.8735 17.4962 20.8704 17.3159 20.8015 17.1563C20.7326 16.9966 20.6035 16.8707 20.4423 16.8057C20.2811 16.7407 20.1007 16.7419 19.9404 16.8091V16.8094Z" fill="#46595F"/>
<path d="M17.2652 18.2635C15.5428 19.4062 14.0616 20.8761 12.9059 22.5898C12.8082 22.735 12.7723 22.9132 12.8061 23.0849C12.8398 23.2567 12.9403 23.408 13.0856 23.5056C13.2309 23.6032 13.4091 23.6391 13.5808 23.6054C13.7526 23.5717 13.9039 23.4711 14.0015 23.3258C15.0615 21.7551 16.4197 20.4079 17.999 19.3607C18.071 19.3126 18.1328 19.2507 18.181 19.1786C18.2291 19.1065 18.2625 19.0256 18.2794 18.9406C18.2963 18.8556 18.2963 18.7681 18.2793 18.6831C18.2624 18.5981 18.2288 18.5173 18.1807 18.4453C18.1325 18.3732 18.0706 18.3114 17.9985 18.2632C17.9264 18.2151 17.8456 18.1817 17.7606 18.1648C17.6755 18.1479 17.588 18.148 17.503 18.1649C17.4181 18.1818 17.3372 18.2154 17.2652 18.2635Z" fill="#46595F"/>
<path d="M51.8392 29.8805H50.7245C50.1466 24.5762 47.5376 19.6786 43.3254 16.0347C39.5646 12.7809 34.8095 10.7843 29.7497 10.2853V7.86482C30.496 7.32929 31.0531 6.57075 31.3408 5.69842C31.6285 4.82608 31.632 3.88496 31.3507 3.01053C31.0694 2.1361 30.5179 1.37349 29.7756 0.832488C29.0333 0.291485 28.1384 0 27.2198 0C26.3013 0 25.4064 0.291485 24.6641 0.832488C23.9218 1.37349 23.3703 2.1361 23.089 3.01053C22.8077 3.88496 22.8112 4.82608 23.0989 5.69842C23.3866 6.57075 23.9437 7.32929 24.69 7.86482V10.2853C19.6302 10.7843 14.8767 12.7803 11.1166 16.0329C6.90375 19.6771 4.29169 24.5753 3.71389 29.8805H2.64694C1.239 29.8805 0.0421443 30.9804 0.00100613 32.3883C-0.00866724 32.7353 0.051495 33.0806 0.177918 33.4038C0.304341 33.7271 0.494446 34.0216 0.736936 34.2699C0.979427 34.5182 1.26935 34.7152 1.58949 34.8493C1.90963 34.9833 2.25345 35.0517 2.60052 35.0502H2.77178L3.23299 37.57C3.35687 38.2487 3.71378 38.8628 4.24212 39.3065C4.77046 39.7501 5.43708 39.9954 6.12696 40H48.2414C48.9196 39.9933 49.5751 39.7551 50.0992 39.3248C50.6234 38.8945 50.9847 38.298 51.1233 37.6341L51.6548 35.0502H51.7927C53.2007 35.0502 54.3975 33.9503 54.4387 32.5423C54.4483 32.1954 54.3882 31.8501 54.2618 31.5268C54.1353 31.2036 53.9452 30.9091 53.7028 30.6608C53.4603 30.4125 53.1703 30.2154 52.8502 30.0814C52.5301 29.9473 52.1862 29.879 51.8392 29.8805ZM24.2037 4.34058C24.2037 3.74403 24.3806 3.16089 24.712 2.66488C25.0434 2.16887 25.5145 1.78228 26.0656 1.55399C26.6167 1.32571 27.2232 1.26598 27.8083 1.38236C28.3934 1.49874 28.9308 1.786 29.3526 2.20782C29.7744 2.62964 30.0617 3.16707 30.1781 3.75215C30.2944 4.33723 30.2347 4.94368 30.0064 5.49482C29.7781 6.04595 29.3915 6.51702 28.8955 6.84844C28.3995 7.17986 27.8164 7.35675 27.2198 7.35675C26.4202 7.35585 25.6535 7.03779 25.0881 6.47234C24.5226 5.90689 24.2046 5.14024 24.2037 4.34058ZM28.4298 8.50609V10.189C27.9898 10.1704 27.6218 10.1604 27.2198 10.1604C26.8179 10.1604 26.4499 10.1704 26.0099 10.189V8.50609C26.8005 8.73356 27.6392 8.73356 28.4298 8.50609ZM11.9839 17.0314C16.1225 13.4516 21.5331 11.4801 27.2198 11.4801C32.9066 11.4801 38.3183 13.4521 42.4576 17.033C46.3775 20.4242 48.8221 24.9637 49.3955 29.8805H5.04318C5.61681 24.9637 8.06299 20.4226 11.9839 17.0314ZM51.8392 33.7303H15.2304C15.0553 33.7303 14.8875 33.7998 14.7637 33.9236C14.6399 34.0473 14.5704 34.2152 14.5704 34.3903C14.5704 34.5653 14.6399 34.7332 14.7637 34.8569C14.8875 34.9807 15.0553 35.0502 15.2304 35.0502H50.3068L49.8304 37.3658C49.7544 37.7329 49.5556 38.0631 49.2668 38.302C48.9779 38.541 48.6163 38.6743 48.2414 38.6801H6.12696C5.7456 38.6755 5.37773 38.5382 5.08652 38.292C4.7953 38.0457 4.5989 37.7057 4.53104 37.3304L4.11405 35.0502H11.4905C11.6656 35.0502 11.8334 34.9807 11.9572 34.8569C12.081 34.7332 12.1505 34.5653 12.1505 34.3903C12.1505 34.2152 12.081 34.0473 11.9572 33.9236C11.8334 33.7998 11.6656 33.7303 11.4905 33.7303H2.62648C2.28677 33.7342 1.9592 33.6041 1.71469 33.3682C1.47018 33.1324 1.3284 32.8097 1.32007 32.4701C1.31993 32.3024 1.35303 32.1363 1.41747 31.9815C1.4819 31.8267 1.57638 31.6862 1.69546 31.5681C1.81453 31.4501 1.95582 31.3568 2.11117 31.2937C2.26652 31.2305 2.43284 31.1988 2.60052 31.2004H51.8132C52.1529 31.1965 52.4805 31.3266 52.725 31.5624C52.9695 31.7983 53.1113 32.121 53.1196 32.4606C53.1198 32.6283 53.0867 32.7943 53.0222 32.9492C52.9578 33.104 52.8633 33.2445 52.7442 33.3625C52.6252 33.4806 52.4839 33.5739 52.3285 33.637C52.1732 33.7001 52.0068 33.7318 51.8392 33.7303Z" fill="#2A5077"/>
</svg>
