<svg width="32" height="32" ><path fill-rule="evenodd" d="M4 2h20v21h5v7H11c-3.86599 0-7-3.134-7-7V2zm23 23v3c-1.6569 0-3-1.3431-3-3h3zm-4.0004 3C22.3719 27.1643 22 26.1256 22 25V4H6v19c0 2.7614 2.23858 5 5 5h11.9996zM8 23.5h11v-1H8v1zm11.5-13c0 .9091-.2776 1.6937-.6787 2.2284-.4008.5345-.8782.7716-1.3213.7716-.4431 0-.9205-.2371-1.3213-.7716-.4011-.5347-.6787-1.3193-.6787-2.2284 0-.90912.2776-1.69369.6787-2.22843C16.5795 7.73714 17.0569 7.5 17.5 7.5c.4431 0 .9205.23714 1.3213.77157.4011.53474.6787 1.31931.6787 2.22843zM18 14.4447c1.4189-.3174 2.5-1.9627 2.5-3.9447 0-2.20914-1.3431-4-3-4s-3 1.79086-3 4c0 1.982 1.0811 3.6273 2.5 3.9447V19.5h1v-5.0553zM9.50039 7.49937l.26166-.42519.00113.0007.00141.00087.00363.00227.01049.00667c.00839.00539.01958.01268.03336.02192.02755.01846.06552.04472.11241.07908.09372.06871.22332.16996.37662.30634.3065.27267.7089.68671 1.1094 1.26266C12.2148 9.91137 13 11.7056 13 14.2826v.5h-3V19.5H9V6.60522l.76204.46895c-.00028-.00012-.0024.00392-.26165.4252zm2.48871 6.28323H10V8.59453c.1841.19662.3865.43911.5895.73106.6454.92811 1.3072 2.36971 1.3996 4.45701z" clip-rule="evenodd"/></svg>