<svg width="32" height="32"><path fill-rule="evenodd" d="M21 4h-4v2h-2V4h-4v2H9V4H6c-.55228 0-1 .44772-1 1v22c0 .5523.44772 1 1 1h20c.5523 0 1-.4477 1-1V5c0-.55228-.4477-1-1-1h-3v2h-2V4zM9 2H6C4.34315 2 3 3.34315 3 5v22c0 1.6569 1.34315 3 3 3h20c1.6569 0 3-1.3431 3-3V5c0-1.65685-1.3431-3-3-3h-3V1h-2v1h-4V1h-2v1h-4V1H9v1zm0 8v2h2v-2H9zm0 14v-2h2v2H9zm0-10v2h2v-2H9zm0 6v-2h2v2H9zm4-10v2h2v-2h-2zm0 14v-2h2v2h-2zm0-10v2h2v-2h-2zm0 6v-2h2v2h-2zm4-10v2h2v-2h-2zm0 14v-2h2v2h-2zm4-14v2h2v-2h-2zm0 14v-2h2v2h-2zm0-9h-2c-.5523 0-1 .4477-1 1v2c0 .5523.4477 1 1 1h2c.5523 0 1-.4477 1-1v-2c0-.5523-.4477-1-1-1zm-2-1c-1.1046 0-2 .8954-2 2v2c0 1.1046.8954 2 2 2h2c1.1046 0 2-.8954 2-2v-2c0-1.1046-.8954-2-2-2h-2z" clip-rule="evenodd"/></svg>