<svg width="143" height="52" viewBox="0 0 143 52" fill="none" xmlns="http://www.w3.org/2000/svg">
<path fill-rule="evenodd" clip-rule="evenodd" d="M131.088 48.1903C138.26 43.5121 143 35.4179 143 26.2167C143 23.3007 142.524 20.496 141.645 17.8759C141.656 18.0724 141.661 18.2723 141.661 18.4758C141.661 20.5981 141.078 22.3874 139.913 23.8439C138.789 25.2588 137.395 26.3824 135.731 27.2146C134.774 27.6724 133.504 28.1718 131.923 28.7127C130.383 29.2537 128.719 29.7947 126.929 30.3357C126.781 30.3815 126.634 30.4273 126.487 30.4732C128.688 31.3882 130.313 32.674 131.361 34.3306C132.651 36.3281 133.296 38.5752 133.296 41.072C133.296 43.547 132.56 45.9198 131.088 48.1903ZM94.0722 39.3219C91.8426 35.4665 90.5667 30.9906 90.5667 26.2167C90.5667 11.7376 102.304 0 116.783 0C126.12 0 134.317 4.88102 138.962 12.2306C137.228 10.7762 135.089 10.049 132.547 10.049C131.548 10.049 130.508 10.1946 129.426 10.4859C128.386 10.7356 127.491 11.1725 126.742 11.7967C126.035 12.421 125.681 13.274 125.681 14.356C125.681 15.3963 126.035 16.187 126.742 16.728C127.45 17.2273 128.199 17.477 128.989 17.477C129.946 17.477 130.758 17.1857 131.424 16.6031C132.131 16.0205 132.485 15.2923 132.485 14.4184C132.485 13.8774 132.339 13.3365 132.048 12.7955C131.757 12.2545 131.32 11.8384 130.737 11.5471C130.82 11.339 131.028 11.1933 131.361 11.1101C131.694 11.0269 132.11 10.9853 132.61 10.9853C134.565 10.9853 136.251 11.5887 137.666 12.7955C139.122 14.0023 139.85 15.5004 139.85 17.2898C139.85 18.3301 139.476 19.3496 138.727 20.3484C137.978 21.3471 136.563 22.325 134.482 23.2821C132.943 23.9896 131.216 24.6346 129.301 25.2172C127.429 25.7998 125.598 26.3408 123.808 26.8401C122.019 27.3395 120.5 27.7972 119.252 28.2134C116.422 29.1705 114.279 30.3981 112.822 31.8962C111.366 33.3527 110.638 35.1629 110.638 37.3268C110.638 39.0746 111.033 40.4894 111.824 41.5714C112.614 42.6117 113.613 43.3816 114.82 43.881C116.027 44.3803 117.213 44.63 118.378 44.63C119.501 44.63 120.625 44.4427 121.748 44.0682C122.914 43.6521 123.871 43.0487 124.62 42.258C125.41 41.4257 125.806 40.427 125.806 39.2618C125.806 38.2631 125.494 37.4516 124.869 36.8274C124.287 36.2032 123.496 35.8911 122.497 35.8911C121.54 35.8911 120.729 36.1824 120.063 36.765C119.397 37.3476 119.064 38.1383 119.064 39.137C119.064 40.1773 119.376 40.9472 120.001 41.4465C120.666 41.9043 121.332 42.1956 121.998 42.3204C121.873 42.7782 121.353 43.1319 120.438 43.3816C119.564 43.5897 118.835 43.6937 118.253 43.6937C117.462 43.6937 116.609 43.5064 115.694 43.1319C114.82 42.7574 114.071 42.1956 113.446 41.4465C112.822 40.6975 112.51 39.782 112.51 38.7C112.51 37.3684 113.03 36.2864 114.071 35.4542C115.153 34.5803 116.463 33.852 118.003 33.2694C119.002 32.8949 120.292 32.458 121.873 31.9586C122.946 31.6009 124.047 31.2432 125.174 30.8856C126.812 31.5146 128.063 32.33 128.927 33.3319C129.967 34.4971 130.654 35.7038 130.987 36.9523C131.32 38.1591 131.486 39.1578 131.486 39.9485C131.486 41.7378 131.049 43.34 130.175 44.7548C129.301 46.1281 128.095 47.3141 126.555 48.3128C125.057 49.3116 123.309 50.0814 121.311 50.6224C119.356 51.1217 117.275 51.3714 115.069 51.3714C111.948 51.3714 109.119 50.8513 106.58 49.8109C104.083 48.729 102.086 47.1892 100.588 45.1918C99.0897 43.1943 98.3407 40.7599 98.3407 37.8886C98.3407 34.9756 99.0897 32.7285 100.588 31.1471C102.086 29.5242 104.042 28.359 106.455 27.6516C106.955 27.8597 107.641 28.151 108.515 28.5255C109.389 28.8584 110.221 29.0248 111.012 29.0248C111.553 29.0248 111.969 28.9208 112.261 28.7127C112.593 28.5047 112.76 28.2134 112.76 27.8389C112.76 26.8817 111.928 26.4032 110.263 26.4032C109.889 26.4032 109.327 26.4448 108.578 26.528C107.829 26.5696 107.1 26.6529 106.393 26.7777C105.145 25.6125 104.291 24.4265 103.834 23.2197C103.418 22.0129 103.21 20.8269 103.21 19.6617C103.21 17.2481 103.875 15.4171 105.207 14.1687C106.58 12.8787 108.328 12.2337 110.45 12.2337C111.74 12.2337 112.801 12.4418 113.634 12.8579C114.508 13.2324 115.028 13.6902 115.194 14.2311C114.237 14.3144 113.446 14.6889 112.822 15.3547C112.198 15.9789 111.886 16.7488 111.886 17.6643C111.886 18.663 112.219 19.4329 112.885 19.9738C113.551 20.5148 114.3 20.7853 115.132 20.7853C116.006 20.7853 116.796 20.494 117.504 19.9114C118.253 19.3288 118.627 18.5174 118.627 17.477C118.627 16.8112 118.44 16.1038 118.066 15.3547C117.733 14.5641 117.15 13.8358 116.318 13.17C115.652 12.629 114.799 12.1921 113.759 11.8592C112.718 11.4846 111.407 11.2974 109.826 11.2974C108.078 11.2974 106.539 11.5054 105.207 11.9216C103.917 12.3377 102.835 12.9203 101.961 13.6694C101.087 14.4184 100.421 15.2715 99.9636 16.2286C99.5059 17.1441 99.277 18.1012 99.277 19.1C99.277 20.6397 99.7972 22.1378 100.838 23.5942C101.919 25.0507 103.501 26.2367 105.581 27.1522C104.791 27.3603 103.75 27.7556 102.46 28.3382C101.17 28.8792 99.8804 29.6699 98.5904 30.7102C97.3004 31.7505 96.2184 33.0822 95.3445 34.7051C94.6204 36.0155 94.1963 37.5544 94.0722 39.3219Z" fill="white"/>
<path d="M29.3166 29.3427C29.2054 31.1063 29.1498 32.6793 29.1498 34.0617C29.1498 34.7926 29.1736 35.3646 29.2213 35.7777H28.6731C28.1488 33.6962 27.4735 32.1947 26.6473 31.2732C25.821 30.3516 24.9313 29.8908 23.9779 29.8908H23.9541V43.5235C23.9541 44.1908 24.0176 44.6755 24.1448 44.9773C24.2878 45.2792 24.534 45.4858 24.8836 45.597C25.249 45.6923 25.821 45.74 26.5996 45.74V46.2167C24.3593 46.169 22.6194 46.1452 21.3801 46.1452C20.252 46.1452 18.6154 46.169 16.4704 46.2167V45.74C17.249 45.74 17.813 45.6923 18.1626 45.597C18.528 45.4858 18.7743 45.2792 18.9014 44.9773C19.0444 44.6755 19.1159 44.1908 19.1159 43.5235V29.8908H19.0921C18.1229 29.8908 17.2251 30.3516 16.3989 31.2732C15.5886 32.1788 14.9213 33.6803 14.3969 35.7777H13.8488C13.8964 35.3646 13.9203 34.7926 13.9203 34.0617C13.9203 32.6793 13.8646 31.1063 13.7534 29.3427C15.2629 29.3903 17.8607 29.4142 21.5469 29.4142C25.2173 29.4142 27.8071 29.3903 29.3166 29.3427Z" fill="white"/>
<path d="M49.4948 45.2633C49.0181 45.74 48.4938 46.0737 47.9218 46.2643C47.3498 46.455 46.6825 46.5503 45.9198 46.5503C44.8235 46.5503 43.9734 46.3597 43.3696 45.9783C42.7659 45.5811 42.3925 44.9138 42.2495 43.9763L41.892 41.593C41.7331 40.4808 41.5106 39.6387 41.2246 39.0667C40.9545 38.4947 40.5414 38.2087 39.9853 38.2087H38.9128V43.6903C38.9128 44.2941 38.9525 44.7311 39.032 45.0012C39.1273 45.2713 39.2862 45.454 39.5086 45.5493C39.7311 45.6447 40.0965 45.7082 40.605 45.74V46.2167C39.6834 46.169 38.3567 46.1452 36.6248 46.1452C34.7022 46.1452 33.2881 46.169 32.3825 46.2167V45.74C32.8909 45.7082 33.2563 45.6447 33.4788 45.5493C33.7171 45.454 33.876 45.2713 33.9555 45.0012C34.0349 44.7311 34.0746 44.2941 34.0746 43.6903V31.869C34.0746 31.2652 34.027 30.8283 33.9316 30.5582C33.8522 30.2881 33.7012 30.1053 33.4788 30.01C33.2563 29.9147 32.8909 29.8511 32.3825 29.8193V29.3427C33.2881 29.3903 34.6546 29.4142 36.4818 29.4142L39.2226 29.3903C39.5404 29.3745 39.9059 29.3665 40.319 29.3665C42.7341 29.3665 44.5295 29.7081 45.7053 30.3913C46.897 31.0746 47.4928 32.1153 47.4928 33.5135C47.4928 34.7052 47.0479 35.7221 46.1581 36.5642C45.2683 37.4063 43.7748 37.9227 41.6775 38.1133C43.2981 38.2246 44.5216 38.5344 45.3478 39.0428C46.174 39.5354 46.6825 40.2663 46.8731 41.2355L47.3736 43.7142C47.4848 44.3021 47.6199 44.7072 47.7788 44.9297C47.9377 45.1521 48.1601 45.2633 48.4461 45.2633C48.7321 45.2633 48.9784 45.1601 49.185 44.9535L49.4948 45.2633ZM40.1998 29.8193C39.8344 29.8193 39.5563 29.875 39.3656 29.9862C39.1908 30.0974 39.0717 30.296 39.0081 30.582C38.9446 30.868 38.9128 31.297 38.9128 31.869V37.732H39.5563C40.6844 37.732 41.455 37.3904 41.8681 36.7072C42.2812 36.0081 42.4878 35.0309 42.4878 33.7757C42.4878 32.4728 42.3051 31.4877 41.9396 30.8203C41.5901 30.153 41.0101 29.8193 40.1998 29.8193Z" fill="white"/>
<path d="M66.9675 29.8193C66.475 29.9306 66.1096 30.1053 65.8712 30.3437C65.6329 30.5661 65.474 30.9157 65.3945 31.3923C65.3151 31.869 65.2754 32.584 65.2754 33.5373V39.2812C65.2754 41.5692 64.9497 43.2534 64.2982 44.3338C63.8692 45.0488 63.2337 45.597 62.3915 45.9783C61.5653 46.3597 60.4928 46.5503 59.174 46.5503C57.2515 46.5503 55.7579 46.169 54.6934 45.4063C53.9148 44.8502 53.3905 44.1035 53.1204 43.166C52.8662 42.2286 52.739 40.9575 52.739 39.3527V31.869C52.739 31.2652 52.6993 30.8283 52.6199 30.5582C52.5404 30.2881 52.3815 30.1053 52.1432 30.01C51.9208 29.9147 51.5553 29.8511 51.0469 29.8193V29.3427C51.9525 29.3903 53.3508 29.4142 55.2415 29.4142C57.1164 29.4142 58.5385 29.3903 59.5077 29.3427V29.8193C58.9357 29.8511 58.5147 29.9147 58.2445 30.01C57.9903 30.1053 57.8155 30.2881 57.7202 30.5582C57.6249 30.8283 57.5772 31.2652 57.5772 31.869V41.593C57.5772 43.1183 57.8155 44.1908 58.2922 44.8105C58.7689 45.4143 59.5236 45.7162 60.5564 45.7162C62.0658 45.7162 63.1383 45.1839 63.7739 44.1193C64.4094 43.0389 64.7272 41.5136 64.7272 39.5433V34.014C64.7272 32.8382 64.6795 31.9961 64.5842 31.4877C64.4889 30.9633 64.2744 30.582 63.9407 30.3437C63.6229 30.1053 63.0827 29.9306 62.32 29.8193V29.3427C62.9715 29.3903 63.8613 29.4142 64.9894 29.4142C65.8315 29.4142 66.4909 29.3903 66.9675 29.3427V29.8193Z" fill="white"/>
<path d="M83.4073 42.2127C83.4073 43.8333 83.4629 45.168 83.5741 46.2167C82.4937 46.169 80.6744 46.1452 78.1163 46.1452C74.3983 46.1452 71.6177 46.169 69.7746 46.2167V45.74C70.2831 45.7082 70.6485 45.6447 70.8709 45.5493C71.1093 45.454 71.2682 45.2713 71.3476 45.0012C71.4271 44.7311 71.4668 44.2941 71.4668 43.6903V31.869C71.4668 31.2652 71.4191 30.8283 71.3238 30.5582C71.2443 30.2881 71.0934 30.1053 70.8709 30.01C70.6485 29.9147 70.2831 29.8511 69.7746 29.8193V29.3427C71.6177 29.3903 74.3983 29.4142 78.1163 29.4142C80.4519 29.4142 82.1123 29.3903 83.0974 29.3427C82.9862 30.8362 82.9306 32.1709 82.9306 33.3467C82.9306 34.0776 82.9544 34.6496 83.0021 35.0627H82.4539C82.1679 33.2196 81.6357 31.9008 80.8571 31.1063C80.0786 30.296 79.1491 29.8908 78.0686 29.8908H77.7588C77.3298 29.8908 77.012 29.9306 76.8054 30.01C76.6148 30.0736 76.4797 30.2086 76.4003 30.4152C76.3367 30.6058 76.3049 30.9316 76.3049 31.3923V37.4937H76.5433C77.3695 37.4937 78.0766 37.168 78.6644 36.5165C79.2523 35.8651 79.6257 35.1421 79.7846 34.3477H80.3328C80.2851 35.015 80.2613 35.7618 80.2613 36.588V37.732C80.2613 38.5423 80.3089 39.6705 80.4043 41.1163H79.8561C79.7131 40.2107 79.3397 39.4639 78.7359 38.876C78.148 38.2722 77.4172 37.9703 76.5433 37.9703H76.3049V44.167C76.3049 44.6278 76.3367 44.9615 76.4003 45.168C76.4797 45.3587 76.6148 45.4937 76.8054 45.5732C77.012 45.6367 77.3298 45.6685 77.7588 45.6685H78.5453C79.4668 45.6685 80.3407 45.2236 81.1669 44.3338C81.9932 43.4282 82.5811 41.9902 82.9306 40.02H83.4788C83.4311 40.592 83.4073 41.3229 83.4073 42.2127Z" fill="white"/>
<path d="M16.3044 5.50934C16.1932 7.27301 16.1375 8.846 16.1375 10.2283C16.1375 10.9592 16.1614 11.5312 16.209 11.9443H15.6609C15.1365 9.86289 14.4613 8.36139 13.635 7.43984C12.8088 6.51828 11.919 6.0575 10.9657 6.0575H10.9419V19.6902C10.9419 20.3575 11.0054 20.8421 11.1325 21.144C11.2755 21.4459 11.5218 21.6525 11.8714 21.7637C12.2368 21.859 12.8088 21.9067 13.5874 21.9067V22.3833C11.347 22.3357 9.60721 22.3118 8.36788 22.3118C7.23977 22.3118 5.60321 22.3357 3.45821 22.3833V21.9067C4.23677 21.9067 4.80082 21.859 5.15038 21.7637C5.51582 21.6525 5.7621 21.4459 5.88921 21.144C6.03221 20.8421 6.10371 20.3575 6.10371 19.6902V6.0575H6.07988C5.11066 6.0575 4.21293 6.51828 3.38671 7.43984C2.57638 8.3455 1.90904 9.847 1.38471 11.9443H0.836544C0.884211 11.5312 0.908044 10.9592 0.908044 10.2283C0.908044 8.846 0.852433 7.27301 0.741211 5.50934C2.25066 5.557 4.84849 5.58084 8.53471 5.58084C12.205 5.58084 14.7949 5.557 16.3044 5.50934Z" fill="white"/>
<path d="M36.4826 21.43C36.0059 21.9067 35.4816 22.2403 34.9096 22.431C34.3376 22.6217 33.6703 22.717 32.9076 22.717C31.8113 22.717 30.9612 22.5263 30.3574 22.145C29.7536 21.7478 29.3803 21.0805 29.2373 20.143L28.8798 17.7597C28.7209 16.6474 28.4984 15.8053 28.2124 15.2333C27.9423 14.6613 27.5292 14.3753 26.9731 14.3753H25.9006V19.857C25.9006 20.4608 25.9403 20.8977 26.0198 21.1678C26.1151 21.438 26.274 21.6207 26.4964 21.716C26.7189 21.8113 27.0843 21.8749 27.5928 21.9067V22.3833C26.6712 22.3357 25.3445 22.3118 23.6126 22.3118C21.69 22.3118 20.2759 22.3357 19.3703 22.3833V21.9067C19.8787 21.8749 20.2441 21.8113 20.4666 21.716C20.7049 21.6207 20.8638 21.438 20.9433 21.1678C21.0227 20.8977 21.0624 20.4608 21.0624 19.857V8.03567C21.0624 7.43189 21.0148 6.99495 20.9194 6.72484C20.84 6.45473 20.689 6.272 20.4666 6.17667C20.2441 6.08134 19.8787 6.01778 19.3703 5.986V5.50934C20.2759 5.557 21.6424 5.58084 23.4696 5.58084L26.2104 5.557C26.5282 5.54112 26.8936 5.53317 27.3068 5.53317C29.7219 5.53317 31.5173 5.87478 32.6931 6.558C33.8848 7.24123 34.4806 8.28195 34.4806 9.68017C34.4806 10.8718 34.0357 11.8887 33.1459 12.7308C32.2561 13.5729 30.7626 14.0893 28.6653 14.28C30.2859 14.3912 31.5094 14.7011 32.3356 15.2095C33.1618 15.7021 33.6703 16.433 33.8609 17.4022L34.3614 19.8808C34.4726 20.4687 34.6077 20.8739 34.7666 21.0963C34.9255 21.3188 35.1479 21.43 35.4339 21.43C35.7199 21.43 35.9662 21.3267 36.1728 21.1202L36.4826 21.43ZM27.1876 5.986C26.8221 5.986 26.5441 6.04162 26.3534 6.15284C26.1786 6.26406 26.0595 6.46267 25.9959 6.74867C25.9324 7.03467 25.9006 7.46367 25.9006 8.03567V13.8987H26.5441C27.6722 13.8987 28.4428 13.5571 28.8559 12.8738C29.269 12.1747 29.4756 11.1976 29.4756 9.94234C29.4756 8.63945 29.2929 7.65434 28.9274 6.987C28.5779 6.31967 27.9979 5.986 27.1876 5.986Z" fill="white"/>
<path d="M46.6147 5.986C46.1062 6.01778 45.7328 6.08134 45.4945 6.17667C45.2721 6.272 45.1211 6.45473 45.0417 6.72484C44.9622 6.99495 44.9225 7.43189 44.9225 8.03567V19.857C44.9225 20.4608 44.9622 20.8977 45.0417 21.1678C45.137 21.438 45.2959 21.6207 45.5183 21.716C45.7408 21.8113 46.1062 21.8749 46.6147 21.9067V22.3833C45.6931 22.3357 44.3664 22.3118 42.6345 22.3118C40.712 22.3118 39.2978 22.3357 38.3922 22.3833V21.9067C38.9006 21.8749 39.2661 21.8113 39.4885 21.716C39.7268 21.6207 39.8857 21.438 39.9652 21.1678C40.0446 20.8977 40.0843 20.4608 40.0843 19.857V8.03567C40.0843 7.43189 40.0367 6.99495 39.9413 6.72484C39.8619 6.45473 39.711 6.272 39.4885 6.17667C39.2661 6.08134 38.9006 6.01778 38.3922 5.986V5.50934C39.2978 5.557 40.712 5.58084 42.6345 5.58084C44.3505 5.58084 45.6772 5.557 46.6147 5.50934V5.986Z" fill="white"/>
<path d="M63.4359 18.3793C63.4359 20 63.4915 21.3347 63.6028 22.3833C62.5223 22.3357 60.703 22.3118 58.1449 22.3118C54.4269 22.3118 51.6464 22.3357 49.8033 22.3833V21.9067C50.3117 21.8749 50.6771 21.8113 50.8996 21.716C51.1379 21.6207 51.2968 21.438 51.3763 21.1678C51.4557 20.8977 51.4954 20.4608 51.4954 19.857V8.03567C51.4954 7.43189 51.4478 6.99495 51.3524 6.72484C51.273 6.45473 51.122 6.272 50.8996 6.17667C50.6771 6.08134 50.3117 6.01778 49.8033 5.986V5.50934C51.6464 5.557 54.4269 5.58084 58.1449 5.58084C60.4806 5.58084 62.141 5.557 63.1261 5.50934C63.0149 7.00289 62.9593 8.33756 62.9593 9.51334C62.9593 10.2442 62.9831 10.8162 63.0308 11.2293H62.4826C62.1966 9.38623 61.6643 8.06745 60.8858 7.27301C60.1072 6.46267 59.1777 6.0575 58.0973 6.0575H57.7874C57.3584 6.0575 57.0406 6.09723 56.8341 6.17667C56.6434 6.24023 56.5084 6.37528 56.4289 6.58184C56.3654 6.7725 56.3336 7.09823 56.3336 7.559V13.6603H56.5719C57.3981 13.6603 58.1052 13.3346 58.6931 12.6832C59.281 12.0317 59.6544 11.3088 59.8133 10.5143H60.3614C60.3138 11.1817 60.2899 11.9284 60.2899 12.7547V13.8987C60.2899 14.709 60.3376 15.8371 60.4329 17.283H59.8848C59.7418 16.3773 59.3684 15.6306 58.7646 15.0427C58.1767 14.4389 57.4458 14.137 56.5719 14.137H56.3336V20.3337C56.3336 20.7945 56.3654 21.1281 56.4289 21.3347C56.5084 21.5253 56.6434 21.6604 56.8341 21.7398C57.0406 21.8034 57.3584 21.8352 57.7874 21.8352H58.5739C59.4955 21.8352 60.3694 21.3903 61.1956 20.5005C62.0218 19.5948 62.6097 18.1569 62.9593 16.1867H63.5074C63.4598 16.7587 63.4359 17.4896 63.4359 18.3793Z" fill="white"/>
<path d="M75.0859 5.50934C78.3749 5.50934 80.8377 6.21639 82.4742 7.6305C84.1108 9.02873 84.9291 11.0704 84.9291 13.7557C84.9291 15.4876 84.5239 17.0049 83.7136 18.3078C82.9191 19.5948 81.7672 20.5958 80.2577 21.3108C78.7483 22.0258 76.9528 22.3833 74.8714 22.3833L73.3937 22.3595C72.4404 22.3277 71.7413 22.3118 71.2964 22.3118C69.4374 22.3118 68.0551 22.3357 67.1494 22.3833V21.9067C67.6578 21.8749 68.0233 21.8113 68.2457 21.716C68.4841 21.6207 68.643 21.438 68.7224 21.1678C68.8018 20.8977 68.8416 20.4608 68.8416 19.857V8.03567C68.8416 7.43189 68.7939 6.99495 68.6986 6.72484C68.6191 6.45473 68.4682 6.272 68.2457 6.17667C68.0233 6.08134 67.6578 6.01778 67.1494 5.986V5.50934C67.8803 5.557 68.9607 5.58084 70.3907 5.58084H71.2487L72.2974 5.557C73.6321 5.52523 74.5616 5.50934 75.0859 5.50934ZM75.4434 5.93834C74.9508 5.93834 74.5774 5.99395 74.3232 6.10517C74.0849 6.21639 73.9181 6.415 73.8227 6.701C73.7274 6.987 73.6797 7.416 73.6797 7.988V19.9047C73.6797 20.4767 73.7274 20.9057 73.8227 21.1917C73.9181 21.4777 74.0849 21.6763 74.3232 21.7875C74.5774 21.8987 74.9588 21.9543 75.4672 21.9543C77.0402 21.9543 78.1763 21.2791 78.8754 19.9285C79.5745 18.5621 79.9241 16.5362 79.9241 13.851C79.9241 11.1658 79.5586 9.17967 78.8277 7.89267C78.1127 6.58978 76.9846 5.93834 75.4434 5.93834Z" fill="white"/>
</svg>
