<svg width="32" height="32" ><path fill-rule="evenodd" d="M24 23.5499c1.8598-1.97 3-4.6268 3-7.5499 0-6.07513-4.9249-11-11-11C9.92487 5 5 9.92487 5 16c0 2.9231 1.14015 5.5799 3 7.5499V22.5c0-1.933 1.567-3.5 3.5-3.5h9c1.933 0 3.5 1.567 3.5 3.5v1.0499zm-1 .9358V22.5c0-1.3807-1.1193-2.5-2.5-2.5h-9C10.1193 20 9 21.1193 9 22.5v1.9857C10.9019 26.0564 13.3407 27 16 27s5.0981-.9436 7-2.5143zM16 29c7.1797 0 13-5.8203 13-13S23.1797 3 16 3 3 8.8203 3 16s5.8203 13 13 13zm2-15v-4c0-1.10457-.8954-2-2-2s-2 .89543-2 2v4c0 1.1046.8954 2 2 2s2-.8954 2-2zm-2-7c-1.6569 0-3 1.34315-3 3v4c0 1.6569 1.3431 3 3 3s3-1.3431 3-3v-4c0-1.65685-1.3431-3-3-3z" clip-rule="evenodd"/></svg>