<svg width="26" height="26" viewBox="0 0 26 26" fill="none" xmlns="http://www.w3.org/2000/svg">
<path fill-rule="evenodd" clip-rule="evenodd" d="M21 20.5499C22.8598 18.5799 24 15.9231 24 13C24 6.92487 19.0751 2 13 2C6.92487 2 2 6.92487 2 13C2 15.9231 3.14015 18.5799 5 20.5499V19.5C5 17.567 6.567 16 8.5 16H17.5C19.433 16 21 17.567 21 19.5V20.5499ZM20 21.4857V19.5C20 18.1193 18.8807 17 17.5 17H8.5C7.11929 17 6 18.1193 6 19.5V21.4857C7.90188 23.0564 10.3407 24 13 24C15.6593 24 18.0981 23.0564 20 21.4857ZM13 26C20.1797 26 26 20.1797 26 13C26 5.8203 20.1797 0 13 0C5.8203 0 0 5.8203 0 13C0 20.1797 5.8203 26 13 26ZM15 11V7C15 5.89543 14.1046 5 13 5C11.8954 5 11 5.89543 11 7V11C11 12.1046 11.8954 13 13 13C14.1046 13 15 12.1046 15 11ZM13 4C11.3431 4 10 5.34315 10 7V11C10 12.6569 11.3431 14 13 14C14.6569 14 16 12.6569 16 11V7C16 5.34315 14.6569 4 13 4Z" fill="white"/>
</svg>
