<svg width="32" height="32" viewBox="0 0 32 32" fill="none" xmlns="http://www.w3.org/2000/svg">
<path fill-rule="evenodd" clip-rule="evenodd" d="M27 24H25H23H8V22H7V24H6.5C5.9632 24 5.45463 24.1208 5 24.3368V5C5 4.44772 5.44772 4 6 4H7V8H8V4H27V24ZM7 26H8H23V29H6.5C5.67157 29 5 28.3284 5 27.5C5 26.6716 5.67157 26 6.5 26H7ZM3 27.5V5C3 3.34315 4.34315 2 6 2H29V26H25V31H6.5H6C4.34315 31 3 29.6569 3 28V27.5ZM20.2238 9.55187L19.93 8.47275C19.6988 7.62327 18.9209 7 18 7C17.0791 7 16.3012 7.62327 16.07 8.47275L15.7762 9.55186L14.7366 9.1397C14.5099 9.04986 14.262 9 14 9C12.8954 9 12 9.89543 12 11C12 12.1046 12.8954 13 14 13H15V18H21V13H22C23.1046 13 24 12.1046 24 11C24 9.89543 23.1046 9 22 9C21.738 9 21.4901 9.04987 21.2635 9.13971L20.2238 9.55187ZM14.4648 8.03579C14.3133 8.01223 14.1581 8 14 8C12.3431 8 11 9.34315 11 11C11 12.6569 12.3431 14 14 14V19H22V14C23.6569 14 25 12.6569 25 11C25 9.34315 23.6569 8 22 8C21.8419 8 21.6867 8.01223 21.5352 8.03578C21.3128 8.07038 21.0984 8.12943 20.8949 8.21009C20.836 7.99372 20.7535 7.78708 20.6503 7.5931C20.1461 6.64531 19.1484 6 18 6C16.8516 6 15.8538 6.64531 15.3497 7.59311C15.2465 7.78708 15.164 7.99372 15.1051 8.21009C14.9016 8.12943 14.6872 8.07039 14.4648 8.03579ZM7 14V10H8V14H7ZM7 16V20H8V16H7ZM12 21V22H24V21H12Z" fill="white"/>
</svg>
