<svg width="32" height="32"><path fill-rule="evenodd" d="M14.4648 8.03579C14.3133 8.01223 14.1581 8 14 8c-1.6569 0-3 1.34315-3 3 0 1.6569 1.3431 3 3 3v5h8v-5c1.6569 0 3-1.3431 3-3 0-1.65685-1.3431-3-3-3-.1581 0-.3133.01223-.4648.03578-.2224.0346-.4368.09365-.6403.17431-.0589-.21637-.1414-.42301-.2446-.61699C20.1461 6.64531 19.1484 6 18 6s-2.1462.64531-2.6503 1.59311c-.1032.19397-.1857.40061-.2446.61698-.2035-.08066-.4179-.1397-.6403-.1743zm5.759 1.51608L19.93 8.47275C19.6988 7.62327 18.9209 7 18 7c-.9209 0-1.6988.62327-1.93 1.47275l-.2938 1.07911-1.0396-.41216C14.5099 9.04986 14.262 9 14 9c-1.1046 0-2 .89543-2 2 0 1.1046.8954 2 2 2h1v5h6v-5h1c1.1046 0 2-.8954 2-2 0-1.10457-.8954-2-2-2-.262 0-.5099.04987-.7365.13971l-1.0397.41216z" clip-rule="evenodd"/><path  d="M7 14v-4h1v4H7zM7 16v4h1v-4H7zM12 21v1h12v-1H12z"/><path fill-rule="evenodd" d="M3 5c0-1.65685 1.34315-3 3-3h23v24h-4v5H6c-1.65685 0-3-1.3431-3-3V5zm24 19H8v-2H7v2h-.5c-.5368 0-1.04537.1208-1.5.3368V5c0-.55228.44772-1 1-1h1v4h1V4h19v20zm-4 2v3H6.5c-.82843 0-1.5-.6716-1.5-1.5S5.67157 26 6.5 26H23z" clip-rule="evenodd"/></svg>