<svg width="271" height="253" viewBox="0 0 271 253" fill="none" xmlns="http://www.w3.org/2000/svg">
<path d="M50.9695 253H0V176.328H50.9695V253ZM1.53685 251.461H49.4327V177.867H1.53685V251.461Z" fill="white"/>
<path d="M25.1888 178.036C24.985 178.036 24.7896 177.955 24.6455 177.811C24.5014 177.667 24.4204 177.471 24.4204 177.267V95.2183C24.4204 95.0143 24.5014 94.8186 24.6455 94.6743C24.7896 94.5301 24.985 94.449 25.1888 94.449C25.3926 94.449 25.5881 94.5301 25.7322 94.6743C25.8763 94.8186 25.9573 95.0143 25.9573 95.2183V177.267C25.9573 177.471 25.8763 177.667 25.7322 177.811C25.5881 177.955 25.3926 178.036 25.1888 178.036Z" fill="white"/>
<path d="M237.189 222.399H237.113C236.91 222.38 236.723 222.28 236.593 222.123C236.464 221.966 236.402 221.764 236.421 221.561L238.127 203.437C238.136 203.336 238.166 203.238 238.213 203.148C238.261 203.058 238.325 202.979 238.403 202.914C238.482 202.85 238.572 202.801 238.669 202.771C238.766 202.742 238.867 202.731 238.968 202.741C239.069 202.75 239.167 202.78 239.257 202.827C239.346 202.875 239.426 202.94 239.49 203.018C239.555 203.096 239.603 203.186 239.633 203.283C239.663 203.38 239.673 203.482 239.664 203.583L237.958 221.699C237.94 221.891 237.852 222.069 237.71 222.199C237.567 222.328 237.382 222.4 237.189 222.399Z" fill="white"/>
<path d="M242.991 227.868C242.787 227.892 242.582 227.833 242.422 227.706C242.261 227.578 242.158 227.392 242.134 227.188C242.111 226.984 242.169 226.779 242.297 226.618C242.424 226.457 242.61 226.353 242.814 226.33L261.602 221.884C261.701 221.86 261.803 221.857 261.902 221.873C262.002 221.889 262.098 221.925 262.184 221.978C262.27 222.031 262.344 222.101 262.404 222.183C262.463 222.265 262.505 222.358 262.528 222.457C262.551 222.555 262.555 222.657 262.539 222.757C262.523 222.857 262.487 222.953 262.434 223.039C262.381 223.125 262.311 223.2 262.229 223.259C262.147 223.318 262.054 223.36 261.956 223.384L243.168 227.83L242.991 227.868Z" fill="white"/>
<path d="M157.78 239.407H141.136C140.933 239.407 140.737 239.326 140.593 239.182C140.449 239.038 140.368 238.842 140.368 238.638C140.368 238.434 140.449 238.238 140.593 238.094C140.737 237.95 140.933 237.869 141.136 237.869H157.78C157.984 237.869 158.18 237.95 158.324 238.094C158.468 238.238 158.549 238.434 158.549 238.638C158.549 238.842 158.468 239.038 158.324 239.182C158.18 239.326 157.984 239.407 157.78 239.407Z" fill="white"/>
<path d="M204.232 252.146H94.6006C92.3588 252.146 90.2089 251.255 88.6237 249.668C87.0385 248.081 86.1479 245.929 86.1479 243.684V201.291C86.1479 201.087 86.2289 200.891 86.373 200.747C86.5171 200.603 86.7126 200.521 86.9164 200.521C87.1202 200.521 87.3156 200.603 87.4597 200.747C87.6038 200.891 87.6848 201.087 87.6848 201.291V243.684C87.6848 245.52 88.4134 247.281 89.7104 248.58C91.0074 249.878 92.7664 250.608 94.6006 250.608H204.232C208.174 250.608 211.147 247.338 211.147 245.223V167.444C211.147 167.24 211.228 167.044 211.373 166.9C211.517 166.755 211.712 166.674 211.916 166.674C212.12 166.674 212.315 166.755 212.459 166.9C212.603 167.044 212.684 167.24 212.684 167.444V245.223C212.684 248.354 208.911 252.146 204.232 252.146Z" fill="white"/>
<path d="M211.916 116.588C211.712 116.588 211.517 116.507 211.373 116.363C211.228 116.219 211.147 116.023 211.147 115.819V97.6953C211.147 97.4913 211.228 97.2956 211.373 97.1513C211.517 97.0071 211.712 96.926 211.916 96.926C212.12 96.926 212.315 97.0071 212.459 97.1513C212.603 97.2956 212.684 97.4913 212.684 97.6953V115.819C212.684 116.023 212.603 116.219 212.459 116.363C212.315 116.507 212.12 116.588 211.916 116.588Z" fill="white"/>
<path d="M211.916 65.4712C211.712 65.4712 211.517 65.3902 211.373 65.2459C211.228 65.1016 211.147 64.906 211.147 64.702V10.0003C211.147 5.01554 208.304 1.53851 204.232 1.53851H94.6006C92.7664 1.53851 91.0074 2.26792 89.7104 3.56629C88.4134 4.86466 87.6848 6.62563 87.6848 8.4618V45.9014C87.6848 46.1054 87.6038 46.3011 87.4597 46.4453C87.3156 46.5896 87.1202 46.6706 86.9164 46.6706C86.7126 46.6706 86.5171 46.5896 86.373 46.4453C86.2289 46.3011 86.1479 46.1054 86.1479 45.9014V8.4618C86.1479 6.21759 87.0385 4.0653 88.6237 2.4784C90.2089 0.891508 92.3588 0 94.6006 0L204.232 0C209.203 0 212.684 4.11551 212.684 10.0003V64.702C212.684 64.906 212.603 65.1016 212.459 65.2459C212.315 65.3902 212.12 65.4712 211.916 65.4712Z" fill="white"/>
<path d="M49.694 199.668H0.514893V210.691H49.694V199.668Z" fill="white"/>
<path d="M49.694 218.899H0.514893V229.922H49.694V218.899Z" fill="white"/>
<path d="M224.887 73.2484H157.396V90.172H224.887V73.2484Z" fill="white"/>
<path d="M173.149 170.559H61.1511V187.483H173.149V170.559Z" fill="white"/>
<path d="M239.687 205.183C242.836 205.183 245.389 202.628 245.389 199.475C245.389 196.323 242.836 193.767 239.687 193.767C236.538 193.767 233.985 196.323 233.985 199.475C233.985 202.628 236.538 205.183 239.687 205.183Z" fill="white"/>
<path d="M236.098 239.623C242.12 239.623 247.002 234.736 247.002 228.707C247.002 222.678 242.12 217.791 236.098 217.791C230.076 217.791 225.194 222.678 225.194 228.707C225.194 234.736 230.076 239.623 236.098 239.623Z" fill="white"/>
<path d="M265.298 227.615C268.447 227.615 271 225.059 271 221.907C271 218.754 268.447 216.199 265.298 216.199C262.149 216.199 259.597 218.754 259.597 221.907C259.597 225.059 262.149 227.615 265.298 227.615Z" fill="white"/>
<path d="M212.531 129.281C210.339 129.281 208.196 129.932 206.374 131.151C204.551 132.37 203.131 134.103 202.293 136.13C201.454 138.158 201.235 140.388 201.663 142.54C202.092 144.692 203.148 146.669 204.698 148.22C206.249 149.771 208.224 150.827 210.374 151.254C212.524 151.681 214.752 151.46 216.776 150.62C218.801 149.779 220.531 148.356 221.748 146.531C222.964 144.705 223.613 142.56 223.611 140.366C223.611 138.909 223.325 137.467 222.768 136.122C222.211 134.777 221.394 133.554 220.365 132.525C219.336 131.495 218.115 130.679 216.77 130.122C215.426 129.566 213.985 129.28 212.531 129.281ZM217.141 140.904C216.596 140.904 216.062 140.742 215.609 140.439C215.155 140.135 214.801 139.704 214.593 139.199C214.384 138.695 214.329 138.14 214.436 137.604C214.542 137.068 214.805 136.576 215.19 136.19C215.576 135.804 216.068 135.541 216.603 135.434C217.138 135.328 217.693 135.382 218.197 135.591C218.701 135.8 219.132 136.154 219.435 136.608C219.738 137.063 219.9 137.596 219.9 138.143C219.901 138.506 219.83 138.865 219.692 139.201C219.554 139.536 219.35 139.841 219.094 140.098C218.838 140.354 218.533 140.558 218.198 140.696C217.863 140.835 217.504 140.905 217.141 140.904Z" fill="white"/>
<path d="M212.3 158.212C195.579 158.212 182.332 140.743 181.755 139.997L181.394 139.512L181.778 139.05C182.332 138.366 195.61 122.396 212.3 122.396C228.998 122.396 242.269 138.366 242.822 139.05L243.198 139.512L242.822 140.004C242.284 140.774 228.99 158.212 212.3 158.212ZM183.369 139.558C185.674 142.389 197.861 156.674 212.3 156.674C226.739 156.674 238.98 142.389 241.231 139.558C238.926 136.912 226.708 123.935 212.3 123.935C197.892 123.935 185.697 136.927 183.369 139.558Z" fill="white"/>
<path d="M248.539 130.858C248.421 130.856 248.306 130.827 248.201 130.773C248.113 130.723 248.036 130.656 247.974 130.575C247.912 130.495 247.866 130.403 247.84 130.305C247.813 130.208 247.806 130.105 247.82 130.005C247.833 129.904 247.866 129.807 247.917 129.719L252.097 122.458C252.199 122.28 252.367 122.15 252.564 122.097C252.762 122.044 252.972 122.071 253.149 122.173C253.327 122.275 253.456 122.443 253.51 122.641C253.563 122.839 253.536 123.049 253.434 123.227L249.246 130.489C249.173 130.609 249.069 130.707 248.944 130.772C248.819 130.837 248.679 130.867 248.539 130.858Z" fill="white"/>
<path d="M252.727 157.782C252.592 157.782 252.458 157.747 252.341 157.679C252.224 157.612 252.126 157.514 252.058 157.397L247.878 150.135C247.823 150.048 247.785 149.95 247.768 149.847C247.752 149.745 247.756 149.64 247.78 149.54C247.805 149.439 247.85 149.344 247.912 149.261C247.974 149.178 248.052 149.109 248.142 149.057C248.232 149.005 248.331 148.972 248.434 148.959C248.537 148.946 248.641 148.955 248.741 148.984C248.84 149.013 248.933 149.062 249.013 149.127C249.093 149.193 249.16 149.274 249.208 149.366L253.396 156.628C253.463 156.745 253.499 156.878 253.498 157.013C253.498 157.149 253.463 157.281 253.395 157.398C253.327 157.515 253.23 157.613 253.112 157.68C252.995 157.747 252.862 157.782 252.727 157.782Z" fill="white"/>
<path d="M262.632 140.089H254.348C254.144 140.089 253.949 140.008 253.805 139.864C253.661 139.719 253.58 139.524 253.58 139.32C253.58 139.116 253.661 138.92 253.805 138.776C253.949 138.631 254.144 138.55 254.348 138.55H262.632C262.836 138.55 263.031 138.631 263.175 138.776C263.319 138.92 263.4 139.116 263.4 139.32C263.4 139.524 263.319 139.719 263.175 139.864C263.031 140.008 262.836 140.089 262.632 140.089Z" fill="white"/>
<path d="M157.78 14.0158H141.136C140.933 14.0158 140.737 13.9348 140.593 13.7905C140.449 13.6462 140.368 13.4506 140.368 13.2465C140.368 13.0425 140.449 12.8469 140.593 12.7026C140.737 12.5583 140.933 12.4773 141.136 12.4773H157.78C157.984 12.4773 158.18 12.5583 158.324 12.7026C158.468 12.8469 158.549 13.0425 158.549 13.2465C158.549 13.4506 158.468 13.6462 158.324 13.7905C158.18 13.9348 157.984 14.0158 157.78 14.0158Z" fill="white"/>
<path d="M15.061 148.681C17.666 151.297 26.6489 165.72 25.0505 167.359C23.4522 168.997 8.97512 160.005 6.36248 157.389C3.74984 154.774 2.52037 149.697 4.93322 147.251C7.34607 144.804 12.4484 146.074 15.061 148.681Z" fill="white"/>
<path d="M15.0611 126.542C17.666 129.158 26.6489 143.589 25.0506 145.22C23.4523 146.851 9.00589 137.858 6.39325 135.219C3.7806 132.581 2.55113 127.527 4.96398 125.088C7.37683 122.65 12.4484 123.935 15.0611 126.542Z" fill="white"/>
<path d="M16.5058 109.173C18.6805 111.35 26.1649 123.381 24.8048 124.742C23.4447 126.104 11.4265 118.588 9.2519 116.427C7.07726 114.265 6.06294 109.988 8.06085 107.965C10.0587 105.942 14.3235 106.996 16.5058 109.173Z" fill="white"/>
<path d="M35.4012 148.851C32.7886 151.466 23.8134 165.897 25.4117 167.528C27.01 169.159 41.4564 160.166 44.0613 157.528C46.6663 154.889 47.9035 149.835 45.4906 147.397C43.0777 144.958 38.0138 146.243 35.4012 148.851Z" fill="white"/>
<path d="M35.7088 126.327C33.0424 129.027 23.6445 143.851 25.2736 145.474C26.9026 147.097 41.7025 137.696 44.3997 135.027C47.0968 132.358 48.4185 127.104 46.021 124.704C43.6235 122.304 38.4213 123.627 35.7088 126.327Z" fill="white"/>
<path d="M35.3475 99.4799C32.8808 101.942 24.1054 115.265 25.4656 116.627C26.8257 117.988 40.1501 109.234 42.6091 106.734C45.068 104.234 46.4512 99.6492 44.4379 97.6491C42.4247 95.6491 37.8218 97.0106 35.3475 99.4799Z" fill="white"/>
<path d="M9.47476 191.798C11.1256 191.798 12.4639 190.458 12.4639 188.806C12.4639 187.153 11.1256 185.813 9.47476 185.813C7.82389 185.813 6.4856 187.153 6.4856 188.806C6.4856 190.458 7.82389 191.798 9.47476 191.798Z" fill="white"/>
<path d="M20.2096 191.798C21.8605 191.798 23.1988 190.458 23.1988 188.806C23.1988 187.153 21.8605 185.813 20.2096 185.813C18.5588 185.813 17.2205 187.153 17.2205 188.806C17.2205 190.458 18.5588 191.798 20.2096 191.798Z" fill="white"/>
<path d="M30.9367 191.798C32.5875 191.798 33.9258 190.458 33.9258 188.806C33.9258 187.153 32.5875 185.813 30.9367 185.813C29.2858 185.813 27.9475 187.153 27.9475 188.806C27.9475 190.458 29.2858 191.798 30.9367 191.798Z" fill="white"/>
<path d="M41.664 191.798C43.3148 191.798 44.6531 190.458 44.6531 188.806C44.6531 187.153 43.3148 185.813 41.664 185.813C40.0131 185.813 38.6748 187.153 38.6748 188.806C38.6748 190.458 40.0131 191.798 41.664 191.798Z" fill="white"/>
<path d="M9.47476 244.107C11.1256 244.107 12.4639 242.768 12.4639 241.115C12.4639 239.462 11.1256 238.123 9.47476 238.123C7.82389 238.123 6.4856 239.462 6.4856 241.115C6.4856 242.768 7.82389 244.107 9.47476 244.107Z" fill="white"/>
<path d="M20.2096 244.107C21.8605 244.107 23.1988 242.768 23.1988 241.115C23.1988 239.462 21.8605 238.123 20.2096 238.123C18.5588 238.123 17.2205 239.462 17.2205 241.115C17.2205 242.768 18.5588 244.107 20.2096 244.107Z" fill="white"/>
<path d="M30.9367 244.107C32.5875 244.107 33.9258 242.768 33.9258 241.115C33.9258 239.462 32.5875 238.123 30.9367 238.123C29.2858 238.123 27.9475 239.462 27.9475 241.115C27.9475 242.768 29.2858 244.107 30.9367 244.107Z" fill="white"/>
<path d="M41.664 244.107C43.3148 244.107 44.6531 242.768 44.6531 241.115C44.6531 239.462 43.3148 238.123 41.664 238.123C40.0131 238.123 38.6748 239.462 38.6748 241.115C38.6748 242.768 40.0131 244.107 41.664 244.107Z" fill="white"/>
<path d="M192.552 75.8177H175.777C172.818 75.8177 167.455 67.302 167.455 62.6173C167.455 58.1248 167.324 54.4017 167.324 54.3632V53.5939H201.035V62.4788C201.004 67.8405 195.948 75.8177 192.552 75.8177ZM168.884 55.1094C168.923 56.4479 168.992 59.3249 168.992 62.6173C168.992 67.1944 174.194 74.2792 175.777 74.2792H192.552C194.665 74.2792 199.467 67.4251 199.467 62.4788V55.1094H168.884Z" fill="white"/>
<path d="M200.236 62.8019C199.813 62.8035 199.394 62.7191 199.004 62.5538C198.614 62.3885 198.262 62.1458 197.969 61.8403C197.813 61.6597 197.62 61.5147 197.404 61.4154C197.187 61.316 196.951 61.2646 196.713 61.2646C196.474 61.2646 196.239 61.316 196.022 61.4154C195.805 61.5147 195.612 61.6597 195.456 61.8403C195.162 62.1441 194.81 62.3857 194.42 62.5506C194.031 62.7156 193.612 62.8006 193.189 62.8006C192.767 62.8006 192.348 62.7156 191.959 62.5506C191.569 62.3857 191.217 62.1441 190.923 61.8403C190.767 61.6597 190.574 61.5147 190.357 61.4154C190.14 61.316 189.905 61.2646 189.666 61.2646C189.428 61.2646 189.192 61.316 188.975 61.4154C188.759 61.5147 188.566 61.6597 188.41 61.8403C188.115 62.1441 187.763 62.3857 187.374 62.5506C186.984 62.7156 186.566 62.8006 186.143 62.8006C185.72 62.8006 185.302 62.7156 184.912 62.5506C184.523 62.3857 184.171 62.1441 183.876 61.8403C183.721 61.6598 183.529 61.515 183.313 61.4157C183.097 61.3163 182.862 61.2649 182.624 61.2649C182.386 61.2649 182.151 61.3163 181.935 61.4157C181.718 61.515 181.526 61.6598 181.371 61.8403C181.077 62.1441 180.724 62.3857 180.335 62.5506C179.946 62.7156 179.527 62.8006 179.104 62.8006C178.681 62.8006 178.263 62.7156 177.874 62.5506C177.484 62.3857 177.132 62.1441 176.837 61.8403C176.682 61.6597 176.489 61.5147 176.272 61.4154C176.055 61.316 175.819 61.2646 175.581 61.2646C175.343 61.2646 175.107 61.316 174.89 61.4154C174.673 61.5147 174.48 61.6597 174.325 61.8403C174.031 62.1449 173.68 62.3871 173.291 62.5526C172.902 62.7181 172.484 62.8033 172.062 62.8033C171.639 62.8033 171.221 62.7181 170.832 62.5526C170.443 62.3871 170.092 62.1449 169.799 61.8403C169.641 61.6609 169.447 61.5167 169.23 61.4173C169.013 61.3179 168.777 61.2655 168.538 61.2634C168.335 61.2634 168.139 61.1824 167.995 61.0381C167.851 60.8938 167.77 60.6982 167.77 60.4941C167.77 60.2901 167.851 60.0945 167.995 59.9502C168.139 59.8059 168.335 59.7249 168.538 59.7249C168.962 59.7229 169.381 59.8071 169.771 59.9724C170.16 60.1377 170.512 60.3806 170.805 60.6865C170.961 60.8671 171.154 61.0121 171.371 61.1114C171.588 61.2108 171.823 61.2622 172.062 61.2622C172.3 61.2622 172.536 61.2108 172.753 61.1114C172.969 61.0121 173.162 60.8671 173.318 60.6865C173.611 60.3819 173.963 60.1397 174.352 59.9742C174.74 59.8087 175.159 59.7235 175.581 59.7235C176.004 59.7235 176.422 59.8087 176.811 59.9742C177.199 60.1397 177.551 60.3819 177.844 60.6865C178 60.8671 178.193 61.0121 178.41 61.1114C178.626 61.2108 178.862 61.2622 179.1 61.2622C179.339 61.2622 179.575 61.2108 179.791 61.1114C180.008 61.0121 180.201 60.8671 180.357 60.6865C180.651 60.3827 181.004 60.1411 181.393 59.9762C181.782 59.8112 182.201 59.7262 182.624 59.7262C183.046 59.7262 183.465 59.8112 183.854 59.9762C184.244 60.1411 184.596 60.3827 184.891 60.6865C185.046 60.867 185.238 61.0118 185.454 61.1111C185.67 61.2104 185.905 61.2619 186.143 61.2619C186.381 61.2619 186.616 61.2104 186.832 61.1111C187.048 61.0118 187.24 60.867 187.396 60.6865C187.69 60.3827 188.042 60.1411 188.432 59.9762C188.821 59.8112 189.24 59.7262 189.662 59.7262C190.085 59.7262 190.504 59.8112 190.893 59.9762C191.283 60.1411 191.635 60.3827 191.929 60.6865C192.085 60.8671 192.278 61.0121 192.495 61.1114C192.712 61.2108 192.947 61.2622 193.186 61.2622C193.424 61.2622 193.66 61.2108 193.877 61.1114C194.093 61.0121 194.286 60.8671 194.442 60.6865C194.737 60.3824 195.09 60.1407 195.48 59.9757C195.87 59.8107 196.289 59.7256 196.713 59.7256C197.136 59.7256 197.555 59.8107 197.945 59.9757C198.335 60.1407 198.688 60.3824 198.983 60.6865C199.14 60.8657 199.332 61.0098 199.548 61.1092C199.764 61.2087 199.998 61.2612 200.236 61.2634C200.44 61.2634 200.635 61.3444 200.779 61.4887C200.923 61.633 201.004 61.8286 201.004 62.0327C201.004 62.2367 200.923 62.4323 200.779 62.5766C200.635 62.7209 200.44 62.8019 200.236 62.8019Z" fill="white"/>
<path d="M198.192 68.9559C197.786 68.9534 197.386 68.8642 197.018 68.6944C196.649 68.5246 196.321 68.2781 196.056 67.9713C195.933 67.7998 195.772 67.66 195.585 67.5636C195.398 67.4671 195.19 67.4168 194.98 67.4168C194.769 67.4168 194.562 67.4671 194.375 67.5636C194.188 67.66 194.026 67.7998 193.904 67.9713C193.64 68.28 193.312 68.5277 192.944 68.6976C192.575 68.8675 192.174 68.9555 191.768 68.9555C191.362 68.9555 190.961 68.8675 190.592 68.6976C190.223 68.5277 189.896 68.28 189.632 67.9713C189.509 67.7998 189.348 67.66 189.161 67.5636C188.974 67.4671 188.766 67.4168 188.556 67.4168C188.345 67.4168 188.138 67.4671 187.951 67.5636C187.764 67.66 187.602 67.7998 187.48 67.9713C187.217 68.2798 186.89 68.5275 186.522 68.6973C186.153 68.8672 185.753 68.9551 185.348 68.9551C184.942 68.9551 184.542 68.8672 184.174 68.6973C183.806 68.5275 183.479 68.2798 183.215 67.9713C183.093 67.7998 182.932 67.66 182.744 67.5636C182.557 67.4671 182.35 67.4168 182.139 67.4168C181.929 67.4168 181.722 67.4671 181.534 67.5636C181.347 67.66 181.186 67.7998 181.064 67.9713C180.8 68.2798 180.473 68.5275 180.105 68.6973C179.737 68.8672 179.337 68.9551 178.931 68.9551C178.526 68.9551 178.125 68.8672 177.757 68.6973C177.389 68.5275 177.062 68.2798 176.799 67.9713C176.674 67.803 176.512 67.6656 176.325 67.5696C176.139 67.4736 175.933 67.4216 175.723 67.4174C175.515 67.4216 175.31 67.4737 175.125 67.5697C174.939 67.6658 174.779 67.8032 174.655 67.9713C174.391 68.28 174.063 68.5277 173.695 68.6976C173.326 68.8675 172.925 68.9555 172.519 68.9555C172.113 68.9555 171.712 68.8675 171.343 68.6976C170.974 68.5277 170.647 68.28 170.383 67.9713C170.257 67.803 170.095 67.6656 169.909 67.5696C169.722 67.4736 169.516 67.4216 169.307 67.4174C169.103 67.4174 168.908 67.3364 168.763 67.1921C168.619 67.0479 168.538 66.8522 168.538 66.6482C168.538 66.4442 168.619 66.2485 168.763 66.1042C168.908 65.96 169.103 65.8789 169.307 65.8789C169.712 65.8815 170.113 65.9707 170.481 66.1405C170.849 66.3103 171.177 66.5568 171.443 66.8636C171.835 67.2328 172.042 67.4174 172.519 67.4174C172.995 67.4174 173.195 67.2328 173.587 66.8636C173.851 66.5549 174.179 66.3071 174.547 66.1372C174.916 65.9673 175.317 65.8794 175.723 65.8794C176.129 65.8794 176.53 65.9673 176.899 66.1372C177.268 66.3071 177.595 66.5549 177.859 66.8636C178.251 67.2328 178.459 67.4174 178.935 67.4174C179.412 67.4174 179.611 67.2328 180.003 66.8636C180.267 66.5549 180.595 66.3071 180.964 66.1372C181.332 65.9673 181.734 65.8794 182.139 65.8794C182.545 65.8794 182.946 65.9673 183.315 66.1372C183.684 66.3071 184.012 66.5549 184.276 66.8636C184.668 67.2328 184.875 67.4174 185.344 67.4174C185.813 67.4174 186.028 67.2328 186.42 66.8636C186.684 66.5549 187.011 66.3071 187.38 66.1372C187.749 65.9673 188.15 65.8794 188.556 65.8794C188.962 65.8794 189.363 65.9673 189.732 66.1372C190.1 66.3071 190.428 66.5549 190.692 66.8636C191.084 67.2328 191.291 67.4174 191.768 67.4174C192.244 67.4174 192.444 67.2328 192.836 66.8636C193.101 66.5547 193.429 66.3069 193.798 66.1369C194.168 65.967 194.569 65.879 194.976 65.879C195.382 65.879 195.784 65.967 196.154 66.1369C196.523 66.3069 196.851 66.5547 197.116 66.8636C197.508 67.2328 197.715 67.4174 198.192 67.4174C198.396 67.4174 198.591 67.4985 198.735 67.6427C198.879 67.787 198.96 67.9827 198.96 68.1867C198.96 68.3907 198.879 68.5864 198.735 68.7306C198.591 68.8749 198.396 68.9559 198.192 68.9559Z" fill="white"/>
<path d="M99.3803 91.372C99.195 91.3741 99.0151 91.3091 98.8739 91.1889C98.7327 91.0688 98.6396 90.9016 98.6118 90.7182C98.5966 90.6181 98.6012 90.5161 98.6254 90.4178C98.6495 90.3196 98.6929 90.2271 98.7528 90.1456C98.8128 90.0641 98.8882 89.9953 98.9748 89.9431C99.0614 89.8909 99.1574 89.8562 99.2573 89.8412C99.3495 89.8412 107.779 88.5027 108.986 84.1487C108.986 83.7795 108.071 82.8948 107.449 82.3025C105.912 80.764 103.73 78.6101 104.736 75.9254L105.113 74.9254L105.943 75.6023C108.163 77.4101 111.936 78.0024 115.348 75.2561C118.007 73.1176 120.174 65.1405 120.819 62.0942L119.759 51.1862C119.74 50.9832 119.802 50.7809 119.931 50.6236C120.061 50.4664 120.248 50.3672 120.45 50.3477C120.653 50.3284 120.855 50.3905 121.012 50.5203C121.169 50.6501 121.269 50.8371 121.288 51.04L122.372 62.1788V62.2942C122.272 62.7481 120.005 73.4946 116.332 76.4562C113.173 79.0024 109.193 79.3793 106.058 77.5331C106.196 78.8716 107.433 80.0948 108.555 81.2102C109.677 82.3256 110.638 83.2718 110.515 84.3641V84.4718C109.124 89.8566 99.9028 91.3028 99.5109 91.3951L99.3803 91.372Z" fill="white"/>
<path d="M183.139 59.7864C180.165 59.7864 176.991 54.1632 176.991 43.7321C176.991 33.6395 180.572 25.8162 183.653 25.8162C186.381 25.8162 187.303 30.3317 187.303 43.7321C187.303 54.9863 186.059 59.7864 183.139 59.7864ZM183.653 27.3547C182.117 27.3547 178.528 33.7087 178.528 43.7321C178.528 53.3939 181.486 58.2479 183.139 58.2479C183.907 58.2479 185.767 56.8325 185.767 43.7321C185.767 30.1932 184.614 27.3547 183.653 27.3547Z" fill="white"/>
<path d="M180.964 62.225C179.688 62.225 178.098 61.5249 176.353 60.1864C174.609 58.8479 171.866 56.0863 168.961 51.0631C163.92 42.3244 163.106 33.7549 165.772 32.2087C168.131 30.8471 171.151 34.2933 177.89 45.8937C179.907 49.1696 181.606 52.6317 182.962 56.2325C183.315 57.3325 184.414 60.6788 182.347 61.8788C181.925 62.1146 181.447 62.234 180.964 62.225ZM166.833 33.4779C166.742 33.4773 166.652 33.4984 166.571 33.5395C165.257 34.3087 165.311 41.6166 170.321 50.2938C172.114 53.5864 174.489 56.5263 177.329 58.971C179.512 60.6865 180.979 60.8942 181.571 60.5095C182.163 60.1249 182.186 58.7787 181.502 56.6633C180.185 53.1669 178.541 49.8031 176.592 46.6168C170.429 35.9934 167.87 33.4779 166.833 33.4779Z" fill="white"/>
<path d="M186.012 60.6326C185.785 60.6304 185.559 60.5915 185.344 60.5172C183.984 60.0557 183.146 58.3172 183.039 55.6248C182.931 53.6939 183.139 50.4015 184.737 45.686C185.87 42.2044 187.61 38.9514 189.878 36.078C191.914 33.6241 193.843 32.4779 195.18 32.9318C197.485 33.701 196.993 37.655 193.297 48.5861C192.31 51.7378 191.023 54.7877 189.455 57.6941C189.032 58.4633 187.711 60.6326 186.012 60.6326ZM194.511 34.3703C193.966 34.3703 192.69 35.0472 191.023 37.0627C188.88 39.7847 187.231 42.8623 186.151 46.1552C185.047 49.1513 184.501 52.3241 184.537 55.5171C184.652 57.6864 185.305 58.8479 185.836 59.0403C186.366 59.2326 187.211 58.4325 188.141 56.871C189.64 54.0601 190.87 51.1135 191.814 48.0707C195.656 36.6165 195.257 34.5703 194.657 34.3626C194.608 34.3558 194.559 34.3584 194.511 34.3703Z" fill="white"/>
<path d="M190.692 64.1635C190.427 64.1638 190.165 64.1061 189.924 63.9943C187.665 62.9558 187.918 57.8864 190.516 52.1862C191.679 49.5544 193.3 47.1504 195.303 45.086C196.379 44.0244 198.377 42.3551 199.867 43.0244C201.358 43.6936 200.882 45.8091 200.351 47.5784C199.476 50.2054 198.437 52.7747 197.239 55.2709C194.411 61.448 192.452 64.1635 190.692 64.1635ZM199.145 44.4091C198.845 44.4091 197.923 44.6783 196.394 46.1783C194.52 48.1096 193.005 50.3604 191.922 52.8247C189.163 58.8633 189.839 62.2558 190.569 62.5942C190.708 62.6558 192.045 62.9712 195.848 54.6247C199.545 46.5322 199.552 44.7629 199.229 44.4244L199.145 44.4091Z" fill="white"/>
<path d="M109.585 41.1089C101.432 41.1089 93.5325 45.8552 92.3415 54.017C91.4578 60.0557 93.0254 59.3172 92.9793 65.8174C92.9332 72.3176 85.8483 73.7638 84.5266 77.9947C83.7582 80.564 85.4257 81.0255 85.2105 83.0795C84.9953 85.1334 81.7526 87.695 81.7065 91.672C81.6604 95.6491 85.295 99.3646 90.1592 99.3646C95.0233 99.3646 100.494 97.1414 100.41 90.6489C100.325 84.1564 98.6118 86.0334 98.5273 81.3332C98.4428 76.6331 103.868 75.1331 103.906 70.4791C103.945 65.8251 97.6743 62.9096 97.5437 60.948C97.4131 58.9864 98.0201 58.1248 100.325 57.9941C102.631 57.8633 103.484 60.7326 105.443 59.8787C107.403 59.0249 107.241 56.5479 106.127 54.7094C105.013 52.8708 107.71 51.717 110.568 52.4016C113.427 53.0862 117.784 54.2401 120.981 51.6323C124.177 49.0246 122.087 44.6706 119.79 43.8936C117.699 43.2321 117.738 41.1551 109.585 41.1089Z" fill="white"/>
<path d="M84.8647 163.851C84.6984 163.851 84.5366 163.797 84.4036 163.697C83.8119 163.243 69.8036 152.535 66.3073 147.451L66.2612 147.366C62.7571 140.689 63.9559 137.058 65.6003 135.189C67.9056 132.527 72.8004 131.858 77.4494 133.558C84.6342 136.181 110.845 146.535 111.106 146.635C111.287 146.716 111.43 146.863 111.506 147.046C111.581 147.23 111.583 147.435 111.51 147.619C111.438 147.804 111.297 147.953 111.117 148.037C110.938 148.12 110.733 148.13 110.545 148.066C110.276 147.958 84.0886 137.612 76.9192 134.989C72.8542 133.504 68.674 133.996 66.7606 136.189C64.8473 138.381 65.17 141.935 67.5982 146.597C71.0331 151.505 85.1951 162.343 85.3334 162.459C85.4953 162.582 85.6016 162.765 85.6289 162.967C85.6563 163.169 85.6025 163.373 85.4794 163.536C85.4087 163.633 85.3162 163.712 85.2095 163.766C85.1027 163.821 84.9846 163.85 84.8647 163.851Z" fill="white"/>
<path d="M126.467 140.243C126.297 140.25 126.128 140.2 125.989 140.101C125.85 140.003 125.748 139.86 125.699 139.697L121.303 125.65L121.78 99.3184L126.874 125.288L137.863 134.127C137.942 134.191 138.007 134.269 138.056 134.358C138.104 134.447 138.135 134.545 138.146 134.645C138.156 134.746 138.147 134.848 138.118 134.945C138.09 135.043 138.042 135.133 137.978 135.212C137.85 135.369 137.665 135.47 137.464 135.491C137.262 135.513 137.061 135.454 136.902 135.327L125.514 126.158L123.094 113.85L122.886 125.473L127.205 139.32C127.265 139.514 127.245 139.725 127.15 139.905C127.055 140.086 126.892 140.221 126.698 140.281C126.619 140.28 126.541 140.267 126.467 140.243Z" fill="white"/>
<path d="M126.874 144.704C126.705 144.704 126.54 144.647 126.406 144.543L120.158 139.712L112.636 138.612L86.9395 125.704L86.2325 109.234C86.2244 109.03 86.2975 108.831 86.4359 108.681C86.5742 108.531 86.7664 108.442 86.9702 108.434C87.174 108.426 87.3727 108.499 87.5226 108.638C87.6725 108.776 87.7612 108.969 87.7694 109.173L88.4379 124.704L113.104 137.096L120.789 138.22L127.351 143.297C127.512 143.421 127.616 143.605 127.642 143.807C127.668 144.008 127.613 144.212 127.489 144.374C127.42 144.473 127.328 144.555 127.222 144.613C127.115 144.67 126.996 144.702 126.874 144.704Z" fill="white"/>
<path d="M76.1585 134.45C75.9819 134.455 75.8091 134.399 75.6691 134.291C75.5292 134.183 75.4306 134.03 75.3901 133.858C75.3901 133.789 73.7456 126.888 72.7236 118.819C71.4788 108.896 70.864 97.5106 71.1868 94.7029C71.7938 89.495 72.3701 84.5949 80.0467 82.6717C80.2505 82.6218 80.4658 82.6549 80.6452 82.7638C80.8246 82.8727 80.9535 83.0485 81.0034 83.2525C81.0533 83.4565 81.0202 83.6721 80.9114 83.8517C80.8026 84.0313 80.627 84.1603 80.4232 84.2102C73.7687 85.8718 73.3076 89.8566 72.739 94.9029C72.4239 97.626 73.0694 109.111 74.2758 118.665C75.2825 126.658 76.8885 133.473 76.9038 133.543C76.9501 133.74 76.9162 133.948 76.8097 134.121C76.7031 134.294 76.5326 134.418 76.3352 134.466C76.2759 134.468 76.2165 134.463 76.1585 134.45Z" fill="white"/>
<path d="M147.345 132.55C147.238 132.553 147.131 132.533 147.032 132.492C146.933 132.451 146.843 132.39 146.769 132.312C144.464 129.727 136.779 121.204 136.234 120.004C135.827 119.042 129.364 101.465 128.665 94.2182C128.019 87.5257 123.432 82.8794 115.402 80.7871C115.204 80.735 115.035 80.6065 114.932 80.4298C114.829 80.2531 114.801 80.0426 114.852 79.8447C114.904 79.6468 115.033 79.4777 115.209 79.3746C115.386 79.2714 115.596 79.2427 115.794 79.2947C124.377 81.5332 129.495 86.7796 130.194 94.0721C130.878 101.149 137.241 118.45 137.648 119.396C138.024 120.165 143.219 126.119 147.906 131.296C148.008 131.406 148.076 131.544 148.101 131.692C148.125 131.84 148.107 131.992 148.046 132.129C147.986 132.267 147.886 132.384 147.76 132.465C147.635 132.547 147.488 132.59 147.338 132.589L147.345 132.55Z" fill="white"/>
<path d="M122.948 150.174C122.824 150.174 122.702 150.143 122.592 150.086C122.483 150.028 122.388 149.945 122.318 149.843L118.991 145.051L111.89 143.512L93.8323 141.466C93.7314 141.455 93.6337 141.424 93.5447 141.375C93.4557 141.326 93.3772 141.26 93.3137 141.181C93.2502 141.101 93.2029 141.01 93.1746 140.913C93.1462 140.815 93.1373 140.713 93.1484 140.612C93.1595 140.511 93.1904 140.413 93.2393 140.324C93.2881 140.235 93.3541 140.156 93.4333 140.093C93.5125 140.029 93.6034 139.982 93.7009 139.953C93.7984 139.925 93.9005 139.916 94.0014 139.927L112.19 141.989L119.874 143.674L123.547 148.966C123.627 149.081 123.674 149.216 123.683 149.356C123.692 149.496 123.662 149.636 123.597 149.761C123.532 149.885 123.434 149.989 123.315 150.062C123.195 150.135 123.057 150.174 122.917 150.174H122.948Z" fill="white"/>
<path d="M154.538 172.651C154.411 172.651 154.287 172.619 154.175 172.558C154.064 172.498 153.97 172.411 153.9 172.305C153.789 172.136 153.749 171.929 153.789 171.73C153.83 171.531 153.947 171.356 154.115 171.244C154.438 171.028 161.938 165.997 159.194 158.389C156.267 150.258 145.755 151.174 143.826 151.689C140.967 152.458 98.4274 165.313 97.9971 165.443C97.9002 165.473 97.7986 165.483 97.6979 165.473C97.5972 165.463 97.4994 165.433 97.4102 165.385C97.321 165.337 97.2421 165.272 97.178 165.194C97.1139 165.115 97.0659 165.025 97.0366 164.928C97.0073 164.831 96.9974 164.729 97.0075 164.628C97.0175 164.528 97.0473 164.43 97.0951 164.341C97.1429 164.251 97.2078 164.172 97.2861 164.108C97.3644 164.044 97.4546 163.996 97.5514 163.967C99.3111 163.436 140.545 150.966 143.426 150.205C146.953 149.266 157.588 149.351 160.654 157.897C163.813 166.659 155.06 172.513 154.976 172.559C154.842 172.633 154.69 172.665 154.538 172.651Z" fill="white"/>
<path d="M159.148 150.258C158.101 150.258 157.077 149.948 156.207 149.365C155.336 148.783 154.658 147.955 154.257 146.987C153.856 146.018 153.751 144.952 153.955 143.924C154.16 142.896 154.664 141.952 155.404 141.21C156.145 140.469 157.088 139.964 158.115 139.76C159.142 139.555 160.207 139.66 161.174 140.062C162.142 140.463 162.969 141.142 163.55 142.014C164.132 142.885 164.443 143.91 164.443 144.958C164.441 146.363 163.882 147.71 162.89 148.704C161.897 149.697 160.552 150.256 159.148 150.258ZM159.148 141.204C158.405 141.204 157.678 141.425 157.06 141.839C156.442 142.252 155.96 142.84 155.676 143.528C155.392 144.216 155.318 144.973 155.463 145.703C155.609 146.433 155.968 147.103 156.494 147.629C157.02 148.154 157.69 148.512 158.42 148.656C159.149 148.801 159.905 148.725 160.591 148.439C161.278 148.153 161.864 147.67 162.276 147.05C162.688 146.431 162.907 145.703 162.906 144.958C162.902 143.963 162.504 143.009 161.8 142.306C161.096 141.602 160.143 141.206 159.148 141.204Z" fill="white"/>
<path d="M112.443 143.251H112.374C112.171 143.231 111.985 143.132 111.855 142.975C111.725 142.817 111.663 142.615 111.683 142.412L112.105 137.797C112.124 137.592 112.222 137.404 112.379 137.273C112.536 137.142 112.739 137.078 112.943 137.096C113.147 137.115 113.335 137.214 113.466 137.371C113.597 137.528 113.66 137.731 113.642 137.935L113.219 142.55C113.202 142.744 113.112 142.923 112.969 143.053C112.825 143.183 112.637 143.253 112.443 143.251Z" fill="white"/>
<path d="M95.6227 161.974C92.403 160.497 88.8145 161.69 85.0415 161.797C81.2686 161.905 79.5319 160.751 74.7908 161.974C70.0496 163.197 70.0957 170.051 72.0629 171.459C72.9235 172.082 77.9567 172.228 83.3203 172.113C83.0275 171.917 82.768 171.676 82.5519 171.398C79.6703 167.613 82.2906 164.343 88.0538 164.474C90.8943 164.479 93.7125 164.976 96.3835 165.943L96.445 171.136C96.445 171.136 95.6765 171.421 94.4624 171.774L97.5361 171.628L98.3045 164.451C98.3045 164.451 98.2354 163.166 95.6227 161.974Z" fill="white"/>
<path d="M118.722 159.089C118.66 159.097 118.598 159.097 118.537 159.089L101.086 154.766L101.263 150.089L118.729 144.089C118.92 144.031 119.125 144.05 119.302 144.14C119.479 144.231 119.614 144.387 119.679 144.575C119.744 144.763 119.733 144.969 119.649 145.15C119.565 145.33 119.414 145.471 119.229 145.543L102.754 151.205L102.669 153.574L118.906 157.597C119.11 157.622 119.295 157.726 119.422 157.888C119.549 158.049 119.607 158.255 119.582 158.459C119.558 158.663 119.453 158.849 119.292 158.976C119.13 159.103 118.925 159.16 118.722 159.136V159.089Z" fill="white"/>
<path d="M122.456 156.928L102.953 151.543C102.758 151.487 102.593 151.357 102.493 151.179C102.394 151.002 102.369 150.793 102.423 150.597C102.45 150.499 102.495 150.408 102.557 150.328C102.619 150.248 102.696 150.181 102.784 150.131C102.872 150.081 102.969 150.049 103.069 150.037C103.169 150.024 103.271 150.032 103.368 150.058L121.772 155.166L134.758 134.743L135.05 134.666L171.835 125.158L162.345 140.935C162.241 141.11 162.072 141.237 161.874 141.288C161.677 141.338 161.467 141.308 161.292 141.204C161.205 141.152 161.129 141.083 161.069 141.001C161.008 140.92 160.965 140.827 160.94 140.728C160.916 140.629 160.911 140.527 160.927 140.426C160.943 140.326 160.978 140.229 161.031 140.143L168.577 127.588L135.727 136.05L122.456 156.928Z" fill="white"/>
<path d="M122.31 157.097C122.106 157.123 121.901 157.066 121.738 156.94C121.576 156.814 121.471 156.628 121.445 156.424C121.42 156.22 121.476 156.014 121.603 155.852C121.729 155.69 121.914 155.584 122.118 155.559L155.36 147.097L156.536 147.866L156.804 151.535L154.361 152.058C154.157 152.101 153.945 152.061 153.77 151.947C153.596 151.833 153.474 151.655 153.431 151.451C153.388 151.247 153.428 151.034 153.542 150.859C153.656 150.685 153.834 150.563 154.038 150.52L155.175 150.281L155.06 148.743L122.494 157.051C122.435 157.074 122.373 157.089 122.31 157.097Z" fill="white"/>
<path d="M110.991 78.3331L110.353 84.4487L105.143 78.0793L105.612 76.6254L110.991 78.3331Z" fill="white"/>
<path d="M9.49003 59.5633C9.50843 59.7474 9.58448 59.9209 9.70731 60.0591C9.83014 60.1972 9.99346 60.293 10.1739 60.3326L13.2476 60.9865C13.356 61.5062 13.4919 62.0197 13.6549 62.525L11.3496 64.6097C11.2099 64.7337 11.1146 64.9002 11.0785 65.0836C11.0424 65.267 11.0675 65.4573 11.1498 65.6251C11.5477 66.4713 12.0128 67.2842 12.5407 68.0559C12.6464 68.2107 12.7996 68.3267 12.9771 68.3864C13.1546 68.4461 13.3467 68.4462 13.5243 68.3867L16.475 67.4405C16.8275 67.8357 17.2021 68.2107 17.5969 68.5636L16.6133 71.5406C16.5559 71.7193 16.5579 71.9118 16.6188 72.0892C16.6798 72.2667 16.7964 72.4197 16.9514 72.5253C17.7203 73.0526 18.5297 73.5181 19.372 73.9176C19.5423 73.996 19.7331 74.0181 19.9168 73.9808C20.1005 73.9435 20.2676 73.8486 20.394 73.7099L22.4764 71.4022C22.9799 71.5692 23.4932 71.7053 24.0132 71.8099L24.6741 74.8869C24.7126 75.0681 24.8079 75.2322 24.9461 75.3554C25.0843 75.4785 25.2583 75.5543 25.4425 75.5715C25.9112 75.5715 26.3723 75.6484 26.8487 75.6484C27.3251 75.6484 27.7862 75.6484 28.2473 75.5715C28.4311 75.5531 28.6044 75.477 28.7424 75.354C28.8804 75.2311 28.9761 75.0675 29.0157 74.8869L29.6688 71.8099C30.1888 71.705 30.7021 71.5689 31.2057 71.4022L33.2804 73.7099C33.4067 73.8486 33.5738 73.9435 33.7576 73.9808C33.9413 74.0181 34.1321 73.996 34.3024 73.9176C35.1462 73.5164 35.958 73.0509 36.7306 72.5253C36.8833 72.4178 36.9977 72.2643 37.0572 72.0872C37.1166 71.9101 37.118 71.7186 37.0611 71.5406L36.1159 68.5713C36.5132 68.2185 36.8903 67.8435 37.2455 67.4482L40.1962 68.3944C40.3727 68.4533 40.5635 68.4529 40.7397 68.3932C40.9159 68.3335 41.0678 68.2177 41.1721 68.0636C41.7028 67.2937 42.1681 66.4805 42.563 65.6328C42.6444 65.4642 42.6682 65.2734 42.6307 65.0899C42.5933 64.9065 42.4965 64.7404 42.3555 64.6173L40.0502 62.5327C40.2168 62.0285 40.3528 61.5147 40.4575 60.9942L43.5312 60.3403C43.7117 60.3007 43.875 60.2049 43.9978 60.0667C44.1206 59.9286 44.1967 59.7551 44.2151 59.571C44.2151 59.1095 44.2843 58.6402 44.2843 58.171C44.2843 57.7018 44.2843 57.2325 44.2151 56.771C44.1979 56.5865 44.1222 56.4124 43.9992 56.274C43.8762 56.1357 43.7122 56.0402 43.5312 56.0017L40.4575 55.3478C40.3538 54.827 40.2177 54.3132 40.0502 53.8093L42.3555 51.7246C42.4948 51.5987 42.5896 51.4309 42.6256 51.2464C42.6616 51.0619 42.637 50.8708 42.5553 50.7015C42.1621 49.8553 41.6968 49.0446 41.1645 48.2784C41.0581 48.1242 40.9053 48.0081 40.7283 47.9472C40.5513 47.8863 40.3594 47.8837 40.1809 47.9399L37.2378 48.8938C36.8856 48.4935 36.511 48.1134 36.1159 47.7553L37.0688 44.8014C37.1189 44.6269 37.1133 44.4412 37.0527 44.2701C36.9921 44.099 36.8794 43.9512 36.7306 43.8475C35.958 43.3219 35.1462 42.8564 34.3024 42.4551C34.1334 42.3734 33.9424 42.3487 33.7582 42.3848C33.5739 42.4208 33.4063 42.5157 33.2804 42.6551L31.198 44.9629C30.6934 44.7995 30.1804 44.6634 29.6612 44.5552L29.0003 41.5166C28.9629 41.3349 28.868 41.1701 28.7295 41.0468C28.5911 40.9234 28.4165 40.8481 28.2319 40.832C27.2984 40.7589 26.3606 40.7589 25.4271 40.832C25.2433 40.8504 25.07 40.9266 24.932 41.0495C24.794 41.1725 24.6983 41.336 24.6587 41.5166L24.0056 44.5552C23.4863 44.6634 22.9733 44.7995 22.4687 44.9629L20.3863 42.6551C20.259 42.5178 20.0915 42.4244 19.9078 42.3884C19.7242 42.3525 19.5338 42.3758 19.3643 42.4551C18.5231 42.8567 17.7139 43.3222 16.9437 43.8475C16.7901 43.9541 16.675 44.1076 16.6155 44.285C16.5559 44.4624 16.5552 44.6543 16.6133 44.8321L17.5662 47.7861C17.1695 48.137 16.7948 48.5121 16.4443 48.9092L13.4935 47.9245C13.315 47.8684 13.1231 47.8709 12.9461 47.9318C12.7691 47.9927 12.6163 48.1088 12.5099 48.263C11.9804 49.031 11.5152 49.8414 11.1191 50.6862C11.0374 50.8554 11.0128 51.0466 11.0488 51.231C11.0848 51.4155 11.1796 51.5833 11.3189 51.7093L13.6242 53.7939C13.4602 54.2989 13.3243 54.8125 13.2169 55.3325L10.1432 55.9863C9.96219 56.0249 9.79823 56.1203 9.67521 56.2586C9.55218 56.397 9.47653 56.5711 9.45929 56.7556C9.45929 57.2171 9.39014 57.6787 9.39014 58.1556C9.39014 58.6325 9.39014 59.0941 9.45929 59.5557L9.49003 59.5633ZM11.1806 57.5479L14.1467 56.9248C14.3164 56.8881 14.4711 56.8009 14.5904 56.6746C14.7098 56.5483 14.7881 56.3888 14.8152 56.2171C14.9488 55.4289 15.1598 54.6559 15.4453 53.9093C15.5095 53.7459 15.5219 53.5666 15.4806 53.3959C15.4394 53.2252 15.3465 53.0714 15.2148 52.9555L12.9787 50.9246C13.1708 50.5477 13.3783 50.1554 13.5857 49.8477L16.4596 50.7785C16.6256 50.8319 16.8038 50.834 16.971 50.7846C17.1382 50.7352 17.2867 50.6366 17.3971 50.5015C17.9138 49.8727 18.4903 49.2957 19.1184 48.7784C19.2548 48.6673 19.3543 48.5173 19.4036 48.3484C19.453 48.1794 19.45 47.9994 19.395 47.8322L18.4422 44.8937C18.7803 44.686 19.1414 44.4783 19.5103 44.286L21.5389 46.5245C21.6554 46.6555 21.809 46.7477 21.9793 46.789C22.1496 46.8302 22.3283 46.8184 22.4918 46.7553C23.2612 46.4764 24.0567 46.2753 24.8662 46.1552C25.0385 46.1251 25.1982 46.0448 25.3253 45.9244C25.4523 45.804 25.5412 45.6489 25.5808 45.4783L26.2186 42.509C26.6336 42.509 27.0485 42.509 27.4558 42.509L28.0936 45.4783C28.1332 45.6489 28.2221 45.804 28.3491 45.9244C28.4762 46.0448 28.6359 46.1251 28.8082 46.1552C29.5951 46.2873 30.3672 46.496 31.1135 46.7783C31.2769 46.8415 31.4557 46.8533 31.6259 46.812C31.7962 46.7708 31.9498 46.6785 32.0663 46.5476L34.095 44.309C34.4638 44.509 34.825 44.7091 35.1631 44.9244L34.241 47.7938C34.1976 47.9638 34.2068 48.143 34.2671 48.3078C34.3275 48.4725 34.4362 48.6151 34.5791 48.7169C35.209 49.2321 35.7857 49.8094 36.3003 50.44C36.4108 50.575 36.5592 50.6737 36.7265 50.7231C36.8937 50.7724 37.0718 50.7703 37.2378 50.7169L40.1117 49.7938C40.3192 50.1323 40.5267 50.4862 40.7188 50.8631L38.4827 52.8939C38.3527 53.0112 38.2612 53.165 38.2201 53.3352C38.1789 53.5054 38.1901 53.6841 38.2521 53.8478C38.5385 54.5941 38.7496 55.3672 38.8822 56.1556C38.9098 56.3283 38.9893 56.4885 39.1101 56.6149C39.2309 56.7414 39.3873 56.828 39.5584 56.8633L42.5169 57.5017C42.5169 57.7069 42.5169 57.9146 42.5169 58.1248C42.5169 58.3325 42.5169 58.5402 42.5169 58.7402L39.5584 59.3864C39.3868 59.4207 39.2299 59.507 39.1089 59.6336C38.988 59.7602 38.9088 59.921 38.8822 60.0941C38.7487 60.8823 38.5376 61.6553 38.2521 62.4019C38.1922 62.5659 38.1821 62.744 38.2231 62.9138C38.2642 63.0835 38.3545 63.2373 38.4827 63.3558L40.7265 65.4635C40.5343 65.8405 40.3269 66.2328 40.1194 66.5328L37.2455 65.6097C37.0797 65.5541 36.9009 65.5509 36.7332 65.6004C36.5655 65.6499 36.4171 65.7498 36.308 65.8866C35.7909 66.5176 35.2117 67.0949 34.5791 67.6097C34.4427 67.7209 34.3432 67.8708 34.2938 68.0398C34.2444 68.2087 34.2474 68.3887 34.3024 68.5559L35.2245 71.4252C34.8864 71.6406 34.5253 71.8406 34.1564 72.033L32.1278 69.7944C32.0095 69.6661 31.8558 69.5757 31.6863 69.5346C31.5167 69.4936 31.3388 69.5037 31.1749 69.5637C30.4292 69.8494 29.657 70.0607 28.8697 70.1944C28.6961 70.2217 28.5349 70.301 28.4073 70.4218C28.2798 70.5427 28.1918 70.6994 28.155 70.8714L27.4558 73.8484C27.0437 73.8715 26.6307 73.8715 26.2186 73.8484L25.5808 70.8868C25.5441 70.7148 25.4561 70.5581 25.3285 70.4372C25.2009 70.3163 25.0397 70.2371 24.8662 70.2098C24.0661 70.0775 23.281 69.8662 22.5225 69.579C22.3588 69.518 22.1806 69.5074 22.0108 69.5485C21.841 69.5896 21.6874 69.6806 21.5697 69.8098L19.5487 72.0483C19.1722 71.856 18.7803 71.6483 18.4729 71.4406L19.4027 68.5636C19.455 68.3974 19.4566 68.2193 19.4073 68.0522C19.358 67.885 19.2601 67.7363 19.1261 67.6251C18.4937 67.11 17.9145 66.5328 17.3971 65.902C17.288 65.7652 17.1396 65.6653 16.9719 65.6158C16.8042 65.5662 16.6254 65.5695 16.4596 65.6251L13.5857 66.5482C13.3783 66.2097 13.1708 65.8559 12.9787 65.4789L15.2148 63.4481C15.3456 63.3315 15.4378 63.1777 15.479 63.0072C15.5202 62.8368 15.5084 62.6578 15.4453 62.4942C15.1633 61.7471 14.9548 60.9742 14.8229 60.1864C14.7927 60.0139 14.7126 59.8541 14.5923 59.7269C14.4721 59.5997 14.3171 59.5107 14.1467 59.471L11.1806 58.8326C11.1806 58.6326 11.1806 58.4249 11.1806 58.2172C11.1806 58.0095 11.1652 57.7479 11.1806 57.5479Z" fill="white"/>
<path d="M54.8963 35.7011C55.0569 35.6506 55.1996 35.5548 55.3073 35.4252C55.4149 35.2956 55.483 35.1376 55.5033 34.9703C55.55 34.5668 55.5756 34.1611 55.5802 33.7549C55.5756 33.3461 55.55 32.9379 55.5033 32.5318C55.483 32.3644 55.4149 32.2065 55.3073 32.0769C55.1996 31.9473 55.0569 31.8515 54.8963 31.801L52.4834 31.0317C52.4143 30.8317 52.3297 30.6394 52.2452 30.4471L53.4132 28.2009C53.4913 28.0512 53.5241 27.8821 53.5078 27.714C53.4914 27.546 53.4265 27.3864 53.321 27.2547C52.8165 26.6149 52.2388 26.0366 51.5997 25.5315C51.4673 25.4277 51.308 25.3638 51.1406 25.3475C50.9732 25.3311 50.8045 25.363 50.6546 25.4392L48.4108 26.6316C48.2263 26.5393 48.0266 26.4623 47.8344 26.3854L47.066 23.97C47.0152 23.8101 46.9192 23.6684 46.7896 23.5619C46.6601 23.4554 46.5026 23.3888 46.336 23.3699C45.5276 23.2621 44.7085 23.2621 43.9001 23.3699C43.7274 23.3835 43.5624 23.4476 43.4258 23.5543C43.2892 23.661 43.1869 23.8055 43.1317 23.97L42.3633 26.3854C42.1712 26.4623 41.9714 26.5393 41.787 26.6316L39.5432 25.4546C39.3932 25.3784 39.2246 25.3465 39.0571 25.3629C38.8897 25.3792 38.7304 25.4431 38.598 25.5469C37.961 26.0543 37.3835 26.6323 36.8767 27.2701C36.773 27.4026 36.7092 27.5621 36.6929 27.7297C36.6765 27.8973 36.7083 28.0661 36.7845 28.2162L37.9525 30.4625C37.868 30.6548 37.7911 30.8471 37.7143 31.0471L35.3015 31.8164C35.1418 31.8685 35.0001 31.9648 34.8926 32.0941C34.7852 32.2234 34.7165 32.3804 34.6944 32.5471C34.6501 32.9534 34.627 33.3616 34.6252 33.7703C34.627 34.1763 34.6501 34.582 34.6944 34.9857C34.7165 35.1524 34.7852 35.3094 34.8926 35.4387C35.0001 35.568 35.1418 35.6643 35.3015 35.7165L37.7143 36.4857C37.7911 36.678 37.868 36.878 37.9602 37.0627L36.7845 39.3089C36.7083 39.459 36.6765 39.6278 36.6929 39.7954C36.7092 39.963 36.773 40.1225 36.8767 40.2551C37.3813 40.8948 37.959 41.4731 38.598 41.9782C38.7304 42.0821 38.8897 42.1459 39.0571 42.1623C39.2246 42.1786 39.3932 42.1468 39.5432 42.0705L41.787 40.9012C41.9714 40.9859 42.1712 41.0628 42.3633 41.1397L43.1317 43.5552C43.1848 43.7216 43.2863 43.8683 43.4232 43.9766C43.5601 44.0848 43.7261 44.1497 43.9001 44.1629C44.3058 44.2096 44.7136 44.2353 45.1219 44.2398C45.5277 44.2353 45.9329 44.2096 46.336 44.1629C46.5035 44.1435 46.6617 44.0757 46.7913 43.9678C46.921 43.8598 47.0164 43.7165 47.066 43.5552L47.8344 41.1397C48.0266 41.0628 48.2263 40.9859 48.4108 40.9012L50.6546 42.0705C50.804 42.1487 50.973 42.1816 51.1409 42.1652C51.3087 42.1488 51.4681 42.0838 51.5997 41.9782C52.2388 41.4731 52.8165 40.8948 53.321 40.2551C53.4247 40.1225 53.4885 39.963 53.5048 39.7954C53.5212 39.6278 53.4894 39.459 53.4132 39.3089L52.2529 37.0396C52.3374 36.855 52.4142 36.655 52.4911 36.4626L54.8963 35.7011ZM51.5382 34.9318C51.4024 34.9734 51.2788 35.0478 51.1783 35.1484C51.0778 35.249 51.0035 35.3727 50.9619 35.5088C50.845 35.8997 50.6906 36.2784 50.5009 36.6396C50.4329 36.7647 50.3974 36.9049 50.3974 37.0473C50.3974 37.1897 50.4329 37.3299 50.5009 37.455L51.6074 39.5781C51.3999 39.8012 51.1771 40.0243 50.9542 40.232L48.8334 39.1243C48.7078 39.0582 48.568 39.0237 48.4261 39.0237C48.2842 39.0237 48.1445 39.0582 48.0189 39.1243C47.6604 39.3212 47.2817 39.4785 46.8893 39.5935C46.7534 39.6351 46.6298 39.7095 46.5293 39.8101C46.4288 39.9107 46.3545 40.0344 46.313 40.1705L45.5906 42.4782C45.286 42.4936 44.9808 42.4936 44.6762 42.4782L43.9539 40.1705C43.9123 40.0344 43.838 39.9107 43.7376 39.8101C43.6371 39.7095 43.5135 39.6351 43.3776 39.5935C42.991 39.4762 42.6175 39.3189 42.2634 39.1243C42.1378 39.0582 41.998 39.0237 41.8561 39.0237C41.7142 39.0237 41.5745 39.0582 41.4488 39.1243L39.3126 40.232C39.0835 40.0257 38.8655 39.8075 38.6595 39.5781L39.7583 37.455C39.8243 37.3292 39.8587 37.1893 39.8587 37.0473C39.8587 36.9052 39.8243 36.7653 39.7583 36.6396C39.5661 36.2786 39.4091 35.8999 39.2896 35.5088C39.2487 35.3736 39.1756 35.2504 39.0765 35.1499C38.9775 35.0494 38.8554 34.9745 38.7209 34.9318L36.4157 34.2087C36.4157 34.0549 36.4157 33.901 36.4157 33.7549C36.4157 33.6087 36.4157 33.4549 36.4157 33.2933L38.7209 32.5702C38.8554 32.5275 38.9775 32.4527 39.0765 32.3522C39.1756 32.2516 39.2487 32.1285 39.2896 31.9933C39.4079 31.6017 39.5649 31.2229 39.7583 30.8625C39.8243 30.7367 39.8587 30.5968 39.8587 30.4548C39.8587 30.3127 39.8243 30.1728 39.7583 30.0471L38.6595 27.9239C38.8655 27.6946 39.0835 27.4763 39.3126 27.2701L41.4258 28.3778C41.5514 28.4438 41.6912 28.4783 41.8331 28.4783C41.9749 28.4783 42.1147 28.4438 42.2403 28.3778C42.5994 28.1822 42.978 28.0249 43.3699 27.9085C43.5049 27.8677 43.628 27.7945 43.7284 27.6953C43.8288 27.5961 43.9036 27.4739 43.9462 27.3393L44.6685 25.0315C44.9732 25.0161 45.2783 25.0161 45.583 25.0315L46.3053 27.3393C46.3479 27.4739 46.4227 27.5961 46.5231 27.6953C46.6235 27.7945 46.7466 27.8677 46.8816 27.9085C47.274 28.0235 47.6528 28.1808 48.0112 28.3778C48.1368 28.4438 48.2766 28.4783 48.4184 28.4783C48.5603 28.4783 48.7001 28.4438 48.8257 28.3778L50.9466 27.2701C51.1694 27.4778 51.3922 27.7008 51.5997 27.9239L50.4932 30.0471C50.4253 30.1722 50.3897 30.3124 50.3897 30.4548C50.3897 30.5972 50.4253 30.7373 50.4932 30.8625C50.6829 31.2237 50.8373 31.6024 50.9542 31.9933C50.9958 32.1293 51.0701 32.2531 51.1706 32.3536C51.2711 32.4542 51.3947 32.5286 51.5306 32.5702L53.8358 33.2933C53.8358 33.4549 53.8358 33.601 53.8358 33.7549C53.8358 33.9087 53.8358 34.0549 53.8358 34.2087L51.5382 34.9318Z" fill="white"/>
<path d="M61.0282 52.0246L59.5375 51.4939C59.4452 51.2554 59.353 51.0169 59.2378 50.7861L59.937 49.3476C59.9978 49.2032 60.0192 49.0452 59.999 48.8897C59.9787 48.7343 59.9176 48.587 59.8218 48.463C59.386 47.8917 58.8829 47.3751 58.3233 46.9245C58.1944 46.8262 58.0411 46.7649 57.88 46.7473C57.7189 46.7297 57.556 46.7564 57.4089 46.8245L55.9797 47.5014C55.7467 47.3915 55.5082 47.2939 55.265 47.2091L54.7348 45.7168C54.6822 45.5629 54.5872 45.427 54.4608 45.3249C54.3343 45.2228 54.1815 45.1587 54.0202 45.1398C53.3188 45.0475 52.6084 45.0475 51.907 45.1398C51.7456 45.1587 51.5929 45.2228 51.4664 45.3249C51.34 45.427 51.245 45.5629 51.1924 45.7168L50.6622 47.2091C50.4176 47.2932 50.1789 47.3934 49.9475 47.5091L48.5183 46.8245C48.3761 46.7637 48.2206 46.7409 48.067 46.7585C47.9135 46.776 47.7671 46.8332 47.6423 46.9245C47.0693 47.3727 46.5531 47.8894 46.1054 48.463C46.0079 48.5909 45.947 48.743 45.9294 48.903C45.9118 49.0629 45.9381 49.2246 46.0055 49.3707L46.6894 50.7708C46.5818 51.0015 46.4819 51.24 46.3974 51.4785L44.8606 52.017C44.7083 52.0719 44.574 52.1677 44.4723 52.2939C44.3707 52.42 44.3056 52.5717 44.2842 52.7324C44.2402 53.082 44.2171 53.4339 44.2151 53.7862C44.2174 54.1411 44.2404 54.4956 44.2842 54.8478C44.3048 55.0088 44.3695 55.1608 44.4713 55.2871C44.573 55.4134 44.7078 55.509 44.8606 55.5632L46.3974 56.094C46.4788 56.3387 46.5763 56.5777 46.6894 56.8094L46.0055 58.2402C45.9342 58.388 45.9058 58.5529 45.9234 58.7161C45.9411 58.8793 46.0041 59.0342 46.1054 59.1633C46.5531 59.737 47.0693 60.2536 47.6423 60.7018C47.7696 60.8034 47.9231 60.8667 48.085 60.8844C48.2469 60.9021 48.4104 60.8735 48.5567 60.8018L49.9475 60.0864C50.1804 60.1964 50.419 60.294 50.6622 60.3787L51.1924 61.9173C51.2469 62.0692 51.3427 62.203 51.4689 62.3035C51.5951 62.4041 51.7468 62.4674 51.907 62.4865C52.2583 62.5366 52.6126 62.5623 52.9674 62.5634C53.3197 62.5624 53.6715 62.5367 54.0202 62.4865C54.1806 62.4683 54.3328 62.4053 54.4591 62.3046C54.5855 62.2039 54.681 62.0697 54.7348 61.9173L55.265 60.3787C55.5082 60.294 55.7467 60.1964 55.9797 60.0864L57.4089 60.7634C57.5552 60.835 57.7187 60.8636 57.8806 60.8459C58.0425 60.8282 58.196 60.7649 58.3233 60.6634C58.8804 60.2275 59.3835 59.7264 59.8218 59.171C59.9225 59.0434 59.9864 58.8907 60.0068 58.7294C60.0271 58.5681 60.003 58.4042 59.937 58.2556L59.2531 56.8248C59.3662 56.5931 59.4638 56.3541 59.5451 56.1094L61.082 55.5786C61.2338 55.5229 61.3677 55.4269 61.4692 55.3009C61.5707 55.1749 61.6361 55.0236 61.6583 54.8632C61.7021 54.511 61.7252 54.1565 61.7275 53.8016C61.7254 53.4493 61.7023 53.0973 61.6583 52.7477C61.6391 52.5854 61.575 52.4317 61.4731 52.3039C61.3713 52.1762 61.2358 52.0794 61.082 52.0246H61.0282ZM59.937 54.1247L58.5539 54.6093C58.4229 54.6583 58.3053 54.7375 58.2105 54.8404C58.1157 54.9433 58.0465 55.067 58.0083 55.2017C57.895 55.6121 57.7325 56.0073 57.5242 56.3786C57.4647 56.4981 57.4337 56.6298 57.4337 56.7633C57.4337 56.8968 57.4647 57.0284 57.5242 57.1479L58.1082 58.4633C57.9649 58.6222 57.8135 58.7737 57.6548 58.9172L56.3331 58.2941C56.2136 58.235 56.0822 58.2043 55.9489 58.2043C55.8157 58.2043 55.6842 58.235 55.5647 58.2941C55.1938 58.5026 54.799 58.6653 54.389 58.7787C54.2551 58.8163 54.1321 58.8855 54.0305 58.9805C53.9289 59.0756 53.8515 59.1937 53.805 59.3249L53.2825 60.7711C53.075 60.7711 52.8599 60.7711 52.6447 60.7711L52.1606 59.3864C52.1128 59.2547 52.0341 59.1363 51.9311 59.0413C51.8282 58.9462 51.704 58.8773 51.5689 58.8402C51.1589 58.7268 50.7641 58.5641 50.3932 58.3556C50.2737 58.2966 50.1423 58.2659 50.009 58.2659C49.8758 58.2659 49.7443 58.2966 49.6248 58.3556L48.3108 58.9787C48.1477 58.8373 47.9937 58.6857 47.8497 58.5248L48.4798 57.2094C48.5388 57.0898 48.5695 56.9582 48.5695 56.8248C48.5695 56.6914 48.5388 56.5598 48.4798 56.4402C48.2716 56.0689 48.109 55.6737 47.9957 55.2632C47.9587 55.128 47.8898 55.0037 47.7949 54.9006C47.7 54.7976 47.5818 54.7188 47.4502 54.6709L46.067 54.1863C46.067 54.0786 46.067 53.9709 46.067 53.8632C46.067 53.7555 46.067 53.6478 46.067 53.5478L47.4502 53.0555C47.5818 53.0076 47.7 52.9288 47.7949 52.8257C47.8898 52.7227 47.9587 52.5983 47.9957 52.4631C48.0807 52.0367 48.2201 51.623 48.4107 51.2323C48.4669 51.1119 48.4961 50.9806 48.4961 50.8477C48.4961 50.7148 48.4669 50.5835 48.4107 50.4631L47.7806 49.1476C47.9266 48.9861 48.0803 48.8399 48.2339 48.6938L49.5556 49.3169C49.6746 49.3777 49.8063 49.4093 49.9398 49.4093C50.0734 49.4093 50.2051 49.3777 50.3241 49.3169C50.6952 49.1108 51.09 48.9507 51.4997 48.8399C51.6342 48.801 51.7574 48.7305 51.859 48.6341C51.9606 48.5377 52.0377 48.4184 52.0837 48.2861L52.5755 46.9091C52.7879 46.8937 53.001 46.8937 53.2133 46.9091L53.7896 48.2168C53.8357 48.3492 53.9128 48.4685 54.0144 48.5649C54.116 48.6612 54.2392 48.7318 54.3737 48.7707C54.7834 48.8814 55.1782 49.0416 55.5493 49.2476C55.6683 49.3084 55.8 49.3401 55.9336 49.3401C56.0671 49.3401 56.1988 49.3084 56.3178 49.2476L57.6318 48.6553C57.7855 48.8015 57.9391 48.9476 58.0851 49.1092L57.455 50.4246C57.3966 50.5444 57.3663 50.6759 57.3663 50.8092C57.3663 50.9425 57.3966 51.0741 57.455 51.1939C57.6633 51.5625 57.8259 51.9551 57.9391 52.3631C57.9762 52.4983 58.045 52.6227 58.14 52.7257C58.2349 52.8288 58.3531 52.9076 58.4847 52.9554L59.8679 53.4478C59.8679 53.5555 59.8679 53.6555 59.8679 53.7632C59.8679 53.8709 59.8679 53.9786 59.8679 54.0862L59.937 54.1247Z" fill="white"/>
<path d="M26.841 67.7559C28.7362 67.7559 30.5889 67.1933 32.1646 66.1393C33.7404 65.0852 34.9686 63.5871 35.6939 61.8342C36.4191 60.0814 36.6089 58.1527 36.2392 56.2919C35.8694 54.4311 34.9568 52.7219 33.6167 51.3803C32.2766 50.0388 30.5692 49.1252 28.7104 48.755C26.8517 48.3849 24.925 48.5749 23.1741 49.3009C21.4231 50.0269 19.9266 51.2565 18.8737 52.8339C17.8208 54.4114 17.2588 56.2661 17.2588 58.1633C17.2608 60.7068 18.271 63.1455 20.0676 64.9441C21.8642 66.7426 24.3003 67.7539 26.841 67.7559ZM26.841 50.3169C28.3912 50.3169 29.9066 50.7771 31.1956 51.6393C32.4845 52.5014 33.4891 53.7269 34.0823 55.1606C34.6756 56.5944 34.8308 58.172 34.5284 59.6941C34.2259 61.2161 33.4794 62.6142 32.3833 63.7115C31.2871 64.8089 29.8905 65.5562 28.3701 65.8589C26.8497 66.1617 25.2738 66.0063 23.8416 65.4124C22.4094 64.8186 21.1853 63.8129 20.324 62.5225C19.4628 61.2322 19.0031 59.7152 19.0031 58.1633C19.0051 56.0829 19.8316 54.0884 21.301 52.6173C22.7705 51.1463 24.7629 50.319 26.841 50.3169Z" fill="white"/>
<path d="M9.43628 43.6552L10.758 44.7706C12.7191 42.4107 15.1756 40.5124 17.9527 39.2108C20.7298 37.9092 23.7593 37.2361 26.8257 37.2396C27.2637 37.2396 27.7094 37.2396 28.1474 37.2934L27.0793 38.3627L28.3088 39.6012L30.9214 36.9857C31.0833 36.8204 31.174 36.598 31.174 36.3665C31.174 36.1349 31.0833 35.9126 30.9214 35.7472L28.3088 33.1318L27.0793 34.3703L28.2627 35.5549C27.7786 35.5549 27.3021 35.4934 26.8257 35.4934C23.5066 35.4935 20.2281 36.2247 17.2228 37.6352C14.2176 39.0457 11.5592 41.101 9.43628 43.6552Z" fill="white"/>
<path d="M45.1295 29.3932C44.2675 29.3917 43.4244 29.6462 42.7069 30.1245C41.9893 30.6029 41.4297 31.2835 41.0988 32.0804C40.7678 32.8772 40.6804 33.7545 40.8477 34.6011C41.0149 35.4476 41.4293 36.2255 42.0383 36.8363C42.6473 37.4471 43.4236 37.8632 44.269 38.0322C45.1144 38.2011 45.9908 38.1152 46.7874 37.7853C47.584 37.4554 48.2649 36.8963 48.744 36.1789C49.2231 35.4614 49.4788 34.6179 49.4788 33.7549C49.4788 32.5994 49.0208 31.4912 48.2054 30.6734C47.39 29.8557 46.2838 29.3952 45.1295 29.3932ZM45.1295 36.3703C44.6128 36.3703 44.1077 36.2169 43.678 35.9295C43.2484 35.6422 42.9135 35.2337 42.7158 34.7558C42.518 34.2778 42.4663 33.752 42.5671 33.2446C42.6679 32.7373 42.9167 32.2712 43.2821 31.9055C43.6475 31.5397 44.113 31.2906 44.6198 31.1897C45.1266 31.0887 45.652 31.1405 46.1294 31.3385C46.6068 31.5365 47.0148 31.8717 47.3019 32.3018C47.589 32.7319 47.7422 33.2376 47.7422 33.7549C47.7422 34.4485 47.4669 35.1138 46.977 35.6043C46.487 36.0948 45.8225 36.3703 45.1295 36.3703Z" fill="white"/>
<path d="M52.9675 50.3169C52.2769 50.3154 51.6013 50.5191 51.0264 50.9023C50.4516 51.2855 50.0032 51.8308 49.7382 52.4693C49.4732 53.1077 49.4035 53.8106 49.5379 54.4888C49.6722 55.167 50.0046 55.7899 50.493 56.2788C50.9814 56.7677 51.6037 57.1005 52.2811 57.235C52.9586 57.3695 53.6607 57.2997 54.2984 57.0344C54.9362 56.7691 55.481 56.3203 55.8637 55.7448C56.2465 55.1693 56.45 54.493 56.4485 53.8016C56.4464 52.8781 56.079 51.9929 55.4267 51.3398C54.7743 50.6867 53.8901 50.319 52.9675 50.3169ZM52.9675 55.5478C52.6222 55.5494 52.2842 55.4482 51.9963 55.2573C51.7085 55.0664 51.4837 54.7942 51.3505 54.4752C51.2173 54.1563 51.1817 53.8049 51.2481 53.4657C51.3145 53.1265 51.48 52.8146 51.7237 52.5696C51.9673 52.3246 52.2781 52.1576 52.6167 52.0896C52.9553 52.0216 53.3064 52.0557 53.6256 52.1876C53.9447 52.3196 54.2176 52.5434 54.4096 52.8307C54.6016 53.118 54.7041 53.4559 54.7042 53.8016C54.7042 54.2634 54.5214 54.7064 54.196 55.0337C53.8705 55.3609 53.4288 55.5458 52.9675 55.5478Z" fill="white"/>
<path d="M60.9744 25.9239L56.6175 25.0469C56.5055 25.0245 56.3901 25.0245 56.2781 25.0468C56.166 25.0691 56.0595 25.1133 55.9646 25.1769C55.8696 25.2405 55.7882 25.3222 55.7248 25.4174C55.6615 25.5126 55.6175 25.6193 55.5955 25.7316L54.7195 30.0932L56.4331 30.4394L56.9018 28.0855C57.7517 29.8543 58.1929 31.792 58.1928 33.7549C58.2035 36.7268 57.1913 39.6118 55.3265 41.9243L56.6866 43.0167C58.4447 40.8132 59.5395 38.1541 59.843 35.3505C60.1464 32.5469 59.646 29.7147 58.4002 27.1854L60.6287 27.6316L60.9744 25.9239Z" fill="white"/>
</svg>
