<svg width="293" height="252" viewBox="0 0 293 252" fill="none" xmlns="http://www.w3.org/2000/svg">
<g clip-path="url(#clip0)">
<path d="M59.767 76.7946H50.2327C38.9909 76.7946 29.8835 85.8962 29.8835 97.1309C29.8835 102.179 30.0258 117.183 30.0258 117.183C30.0258 117.183 44.0426 117.396 50.1616 117.396H59.767C71.0089 117.396 80.1162 108.295 80.1162 97.0598C80.045 85.8962 70.9377 76.7946 59.767 76.7946Z" fill="white"/>
<path d="M144.864 172.859H73.428V185.018H144.864V172.859Z" fill="white"/>
<path d="M257.424 123.264H222.987C219.714 123.264 217.082 120.633 217.082 117.362C217.082 114.091 219.714 111.461 222.987 111.461H257.424C260.697 111.461 263.33 114.091 263.33 117.362C263.33 120.562 260.697 123.264 257.424 123.264Z" fill="white"/>
<path d="M237.004 102.999H222.916C219.643 102.999 217.011 100.368 217.011 97.0971C217.011 93.8262 219.643 91.1953 222.916 91.1953H237.004C240.277 91.1953 242.91 93.8262 242.91 97.0971C242.91 100.368 240.277 102.999 237.004 102.999Z" fill="white"/>
<path d="M272.864 82.4492H264.682C261.409 82.4492 258.776 79.8183 258.776 76.5474C258.776 73.2765 261.409 70.6456 264.682 70.6456H272.935C276.208 70.6456 278.841 73.2765 278.841 76.5474C278.841 79.8183 276.137 82.4492 272.864 82.4492Z" fill="white"/>
<path d="M248.531 82.2359H221.209C218.078 82.2359 215.517 79.6761 215.517 76.5474C215.517 73.4187 218.078 70.8589 221.209 70.8589H248.531C251.661 70.8589 254.223 73.4187 254.223 76.5474C254.223 79.6761 251.661 82.2359 248.531 82.2359ZM221.209 72.281C218.861 72.281 216.94 74.2009 216.94 76.5474C216.94 78.8939 218.861 80.8138 221.209 80.8138H248.531C250.879 80.8138 252.8 78.8939 252.8 76.5474C252.8 74.2009 250.879 72.281 248.531 72.281H221.209Z" fill="white"/>
<path d="M248.531 143.245H221.209C218.078 143.245 215.517 140.685 215.517 137.556C215.517 134.428 218.078 131.868 221.209 131.868H248.531C251.661 131.868 254.223 134.428 254.223 137.556C254.223 140.685 251.661 143.245 248.531 143.245ZM221.209 133.29C218.861 133.29 216.94 135.21 216.94 137.556C216.94 139.903 218.861 141.823 221.209 141.823H248.531C250.879 141.823 252.8 139.903 252.8 137.556C252.8 135.21 250.879 133.29 248.531 133.29H221.209Z" fill="white"/>
<path d="M287.308 102.786H254.65C251.519 102.786 248.958 100.226 248.958 97.0971C248.958 93.9684 251.519 91.4086 254.65 91.4086H287.308C290.439 91.4086 293 93.9684 293 97.0971C293 100.226 290.439 102.786 287.308 102.786ZM254.65 92.8307C252.302 92.8307 250.381 94.7506 250.381 97.0971C250.381 99.4436 252.302 101.363 254.65 101.363H287.308C289.656 101.363 291.577 99.4436 291.577 97.0971C291.577 94.7506 289.656 92.8307 287.308 92.8307H254.65Z" fill="white"/>
<path d="M188.977 91.4424C192.632 91.4424 195.594 88.4818 195.594 84.8296C195.594 81.1774 192.632 78.2167 188.977 78.2167C185.323 78.2167 182.36 81.1774 182.36 84.8296C182.36 88.4818 185.323 91.4424 188.977 91.4424Z" fill="white"/>
<path d="M176.028 94.9266C177.678 94.9266 179.016 93.5896 179.016 91.9402C179.016 90.2908 177.678 88.9537 176.028 88.9537C174.377 88.9537 173.039 90.2908 173.039 91.9402C173.039 93.5896 174.377 94.9266 176.028 94.9266Z" fill="white"/>
<path d="M193.958 104.455C196.276 104.455 198.156 102.577 198.156 100.26C198.156 97.9426 196.276 96.0643 193.958 96.0643C191.639 96.0643 189.76 97.9426 189.76 100.26C189.76 102.577 191.639 104.455 193.958 104.455Z" fill="white"/>
<path d="M201.357 86.8916C202.065 86.8916 202.638 86.3186 202.638 85.6117C202.638 84.9049 202.065 84.3318 201.357 84.3318C200.65 84.3318 200.077 84.9049 200.077 85.6117C200.077 86.3186 200.65 86.8916 201.357 86.8916Z" fill="white"/>
<path d="M178.091 74.377C179.034 74.377 179.799 73.6129 179.799 72.6704C179.799 71.7279 179.034 70.9639 178.091 70.9639C177.148 70.9639 176.384 71.7279 176.384 72.6704C176.384 73.6129 177.148 74.377 178.091 74.377Z" fill="white"/>
<path d="M196.235 28.3713C196.021 28.3713 195.736 28.2291 195.594 28.0158C195.381 27.6603 195.523 27.2336 195.808 27.0203C198.369 25.456 199.863 22.6828 199.863 19.6964C199.863 14.9323 196.021 11.0925 191.254 11.0925C186.487 11.0925 182.645 14.9323 182.645 19.6964C182.645 21.3318 183.143 22.9673 183.997 24.3894C184.21 24.7449 184.139 25.1716 183.783 25.3849C183.427 25.5982 183 25.5271 182.787 25.1716C181.72 23.5361 181.222 21.6874 181.222 19.7675C181.222 14.2212 185.704 9.74153 191.254 9.74153C196.804 9.74153 201.286 14.2212 201.286 19.7675C201.286 23.2517 199.508 26.4515 196.519 28.3002C196.448 28.3713 196.306 28.3713 196.235 28.3713Z" fill="white"/>
<path d="M198.511 34.1309C198.227 34.1309 198.013 33.9887 197.871 33.7754C197.657 33.4199 197.8 32.9932 198.156 32.7799C202.923 30.2201 205.84 25.3138 205.84 19.9808C205.84 11.9458 199.294 5.47518 191.325 5.47518C183.356 5.47518 176.81 12.0169 176.81 19.9808C176.81 23.465 178.091 26.8781 180.368 29.509C180.652 29.7935 180.581 30.2201 180.297 30.5045C180.012 30.7889 179.585 30.7178 179.301 30.4334C176.81 27.5181 175.387 23.8206 175.387 19.9808C175.387 11.1637 182.573 4.05305 191.325 4.05305C200.077 4.05305 207.263 11.2348 207.263 19.9808C207.263 25.8826 203.99 31.2867 198.796 34.0598C198.725 34.1309 198.582 34.1309 198.511 34.1309Z" fill="white"/>
<path d="M155.963 24.1761C155.892 24.1761 155.892 24.1761 155.821 24.1761C155.465 24.105 155.252 23.8916 155.252 23.5361L154.682 15.9989L153.828 18.7009C153.757 18.9853 153.473 19.1986 153.117 19.1986H147.425C146.998 19.1986 146.713 18.9142 146.713 18.4876C146.713 18.0609 146.998 17.7765 147.425 17.7765H152.619L154.398 12.088C154.469 11.7325 154.825 11.5903 155.18 11.5903C155.536 11.6614 155.75 11.8747 155.821 12.2302L156.461 20.4074L158.311 15.9278C158.382 15.7144 158.596 15.5722 158.88 15.5011C159.094 15.43 159.378 15.5722 159.521 15.7144L161.015 17.4921H163.79L166.493 11.6614C166.636 11.377 166.92 11.2348 167.276 11.2348C167.561 11.3059 167.845 11.5192 167.845 11.8747L168.913 20.4785L171.403 15.9989C171.616 15.6433 172.043 15.5011 172.399 15.7144C172.755 15.9278 172.897 16.3544 172.684 16.7099L169.126 23.1095C168.984 23.3939 168.699 23.5361 168.343 23.465C168.059 23.3939 167.845 23.1806 167.774 22.825L166.707 14.5056L164.857 18.4876C164.715 18.772 164.501 18.9142 164.217 18.9142H160.659C160.446 18.9142 160.232 18.8431 160.09 18.6298L159.094 17.4921L156.532 23.6072C156.532 24.0339 156.248 24.1761 155.963 24.1761Z" fill="white"/>
<path d="M228.822 22.8251C228.395 22.8251 228.182 22.5406 228.11 22.1851L227.185 15.0745L226.26 18.3454C226.189 18.6298 225.905 18.8431 225.549 18.8431H223.699L222.774 22.0429C222.703 22.3273 222.418 22.5406 222.063 22.5406C221.778 22.5406 221.493 22.3273 221.351 22.0429L219.928 16.781L219.359 18.8431C219.288 19.1275 219.003 19.3409 218.647 19.3409H216.299C215.944 19.3409 215.659 19.1275 215.588 18.772L214.52 14.5767L213.524 21.7585C213.453 22.0429 213.24 22.2562 212.955 22.3273C212.671 22.3984 212.386 22.2562 212.173 22.0429L209.753 18.3454C209.54 17.9898 209.611 17.5632 209.967 17.3499C210.323 17.1366 210.749 17.2077 210.963 17.5632L212.386 19.6964L213.596 10.8081C213.667 10.4526 213.951 10.2393 214.236 10.1682C214.592 10.1682 214.876 10.3815 214.947 10.6659L216.797 17.7765H218.149L219.288 13.7235C219.359 13.439 219.643 13.2257 219.999 13.2257C220.355 13.2257 220.568 13.439 220.711 13.7235L222.205 19.0564L222.632 17.7054C222.703 17.421 222.987 17.2077 223.343 17.2077H225.193L226.901 11.0925C226.972 10.737 227.328 10.5237 227.612 10.5948C227.968 10.5948 228.253 10.8792 228.253 11.2348L229.249 18.772L229.747 17.2077C229.818 16.9232 230.103 16.7099 230.387 16.7099H233.162C233.589 16.7099 233.874 16.9944 233.874 17.421C233.874 17.8476 233.589 18.132 233.162 18.132H230.885L229.533 22.114C229.462 22.6117 229.178 22.8251 228.822 22.8251Z" fill="white"/>
<path d="M80.3297 36.9041C79.9028 36.9041 79.6182 36.6196 79.6182 36.193V20.763C79.6182 20.3364 79.9028 20.0519 80.3297 20.0519C80.7566 20.0519 81.0412 20.3364 81.0412 20.763V36.193C81.0412 36.5485 80.6854 36.9041 80.3297 36.9041Z" fill="white"/>
<path d="M86.8043 32.2111C86.3774 32.2111 86.0928 31.9266 86.0928 31.5V15.7856C86.0928 15.3589 86.3774 15.0745 86.8043 15.0745C87.2312 15.0745 87.5158 15.3589 87.5158 15.7856V31.5C87.5158 31.9266 87.16 32.2111 86.8043 32.2111Z" fill="white"/>
<path d="M236.222 227.326C235.795 227.326 235.51 227.042 235.51 226.615V216.589C235.51 216.163 235.795 215.878 236.222 215.878C236.648 215.878 236.933 216.163 236.933 216.589V226.615C236.933 226.971 236.577 227.326 236.222 227.326Z" fill="white"/>
<path d="M243.692 232.588C243.265 232.588 242.981 232.304 242.981 231.877V217.158C242.981 216.731 243.265 216.447 243.692 216.447C244.119 216.447 244.404 216.731 244.404 217.158V231.877C244.404 232.304 244.119 232.588 243.692 232.588Z" fill="white"/>
<path d="M251.163 226.9C250.736 226.9 250.452 226.615 250.452 226.189V216.731C250.452 216.305 250.736 216.02 251.163 216.02C251.59 216.02 251.875 216.305 251.875 216.731V226.189C251.875 226.615 251.519 226.9 251.163 226.9Z" fill="white"/>
<path d="M71.7202 225.335C71.3645 225.335 71.0087 225.335 70.7241 225.335C53.2921 225.051 36.785 217.585 26.6105 205.354C18.3569 195.471 14.9417 185.089 16.507 174.494C14.0167 172.219 11.8822 169.446 10.2457 166.388C5.97665 158.495 1.56528 141.857 19.9934 119.672C20.278 119.387 20.7049 119.316 20.9895 119.6C21.2741 119.885 21.3453 120.312 21.0607 120.596C3.13061 142.141 7.32852 158.14 11.4553 165.748C12.8783 168.379 14.6571 170.797 16.7916 172.788C18.855 162.122 25.3297 155.011 28.0335 152.451C33.6544 147.047 42.4771 144.559 49.4499 146.407C54.1459 147.616 57.4189 150.745 58.7707 155.225C60.4783 161.055 59.7668 166.815 56.6362 171.437C52.794 177.196 45.6078 180.965 36.3581 181.96C30.0968 182.672 23.3375 180.183 17.8589 175.561C16.8628 183.738 18.855 193.622 27.82 204.359C37.7812 216.234 53.8613 223.558 70.8664 223.842C88.6542 224.126 105.232 216.66 117.541 202.795C117.826 202.51 118.253 202.51 118.538 202.723C118.822 203.008 118.822 203.435 118.609 203.719C106.086 217.656 89.508 225.335 71.7202 225.335ZM17.93 173.926C23.2664 178.619 29.9545 181.249 36.0735 180.538C44.8963 179.543 51.7268 176.059 55.3555 170.655C58.2015 166.388 58.913 161.055 57.2766 155.651C55.7824 150.603 51.9402 148.612 48.9519 147.83C42.5483 146.123 34.0813 148.541 28.8873 153.518C27.5354 154.869 19.9223 162.549 17.93 173.926Z" fill="white"/>
<path d="M30.5238 88.2427H21.0607C9.46309 88.2427 0 78.7856 0 67.1953C0 55.605 9.46309 46.219 21.0607 46.219H30.5238C42.1214 46.219 51.5845 55.6761 51.5845 67.2664C51.5845 72.3149 51.4422 87.1761 51.4422 87.3183C51.4422 87.6738 51.1576 88.0293 50.7307 88.0293C50.5172 88.0293 36.5716 88.2427 30.5238 88.2427ZM21.0607 47.6411C10.2458 47.6411 1.42302 56.3871 1.42302 67.1953C1.42302 78.0034 10.2458 86.8205 21.0607 86.8205H30.5238C35.789 86.8205 47.102 86.6072 49.948 86.6072C49.948 83.6208 50.0903 71.6038 50.0903 67.2664C50.0903 56.3871 41.3388 47.6411 30.5238 47.6411H21.0607Z" fill="white"/>
<path d="M34.1524 62.5023H17.1473C16.7204 62.5023 16.4358 62.2178 16.4358 61.7912C16.4358 61.3646 16.7204 61.0801 17.1473 61.0801H34.1524C34.5793 61.0801 34.8639 61.3646 34.8639 61.7912C34.8639 62.2178 34.5082 62.5023 34.1524 62.5023Z" fill="white"/>
<path d="M34.1524 72.4571H17.1473C16.7204 72.4571 16.4358 72.1727 16.4358 71.746C16.4358 71.3194 16.7204 71.035 17.1473 71.035H34.1524C34.5793 71.035 34.8639 71.3194 34.8639 71.746C34.8639 72.1727 34.5082 72.4571 34.1524 72.4571Z" fill="white"/>
<path d="M74.7087 28.4424C69.5858 28.4424 65.3879 24.2472 65.3879 19.1275C65.3879 14.0079 69.5858 9.81264 74.7087 9.81264C75.7048 9.81264 76.4875 9.88375 77.199 10.1682C77.6971 4.47968 82.4642 0.071106 88.2986 0.071106C94.4176 0.071106 99.4693 5.04853 99.4693 11.2348C99.4693 11.8036 99.3981 12.4436 99.327 13.0124C102.6 13.8657 104.592 16.6388 104.592 20.4075C104.592 24.816 101.035 28.3713 96.6232 28.3713C94.2753 28.3713 92.0696 27.3759 90.5043 25.5271C90.2197 25.2427 90.2908 24.7449 90.5754 24.5316C90.86 24.2472 91.3581 24.3183 91.5715 24.6027C92.8522 26.0959 94.631 26.8781 96.5521 26.8781C100.181 26.8781 103.098 23.9628 103.098 20.3363C103.098 16.9944 101.319 14.6479 98.3309 14.1501C98.1174 14.1501 97.9751 14.0079 97.8328 13.8657C97.6905 13.7235 97.6905 13.5102 97.7617 13.2968C97.904 12.5858 97.9751 11.8747 97.9751 11.1637C97.9751 5.8307 93.6349 1.42212 88.2274 1.42212C82.8199 1.42212 78.4797 5.75959 78.4797 11.1637C78.4797 11.377 78.3374 11.6614 78.124 11.7325C77.9105 11.8036 77.6971 11.8747 77.4125 11.8036C76.4875 11.377 75.776 11.2348 74.5664 11.2348C70.2262 11.2348 66.6687 14.7901 66.6687 19.1275C66.6687 23.465 70.2974 27.0203 74.7087 27.0203C75.4202 27.0203 76.1317 26.9492 76.7721 26.7359C77.1279 26.6648 77.5548 26.8781 77.6259 27.2336C77.6971 27.5892 77.4836 28.0158 77.1279 28.0869C76.3452 28.3002 75.4914 28.4424 74.7087 28.4424Z" fill="white"/>
<path d="M258.278 221.709C257.851 221.709 257.567 221.424 257.567 220.998C257.567 220.571 257.851 220.287 258.278 220.287C263.899 220.287 268.453 215.736 268.453 210.119C268.453 204.501 263.899 199.95 258.278 199.95C257.424 199.95 257.424 199.95 256.998 200.021H256.784C256.499 200.021 256.215 199.879 256.073 199.666C253.511 195.115 248.744 192.271 243.479 192.271C235.51 192.271 229.106 198.742 229.106 206.634C229.106 207.061 228.822 207.345 228.395 207.345C224.908 207.345 222.774 209.763 222.774 213.603C222.774 217.229 225.762 220.216 229.391 220.216C229.818 220.216 230.102 220.5 230.102 220.927C230.102 221.353 229.818 221.638 229.391 221.638C224.98 221.638 221.351 218.011 221.351 213.603C221.351 209.194 223.841 206.279 227.683 205.994C228.039 197.604 235.012 190.849 243.479 190.849C249.1 190.849 254.223 193.835 257.069 198.599C257.353 198.599 257.496 198.599 258.207 198.599C264.611 198.599 269.805 203.79 269.805 210.19C269.876 216.518 264.682 221.709 258.278 221.709Z" fill="white"/>
<path d="M257.923 211.398C257.851 211.398 257.78 211.398 257.709 211.398C257.353 211.256 257.14 210.901 257.211 210.545C257.638 209.194 257.78 207.843 257.78 206.421C257.78 204.003 257.14 201.586 256.001 199.453C255.788 199.097 255.93 198.67 256.286 198.457C256.642 198.244 257.069 198.386 257.282 198.742C258.563 201.088 259.274 203.719 259.274 206.421C259.274 207.985 259.061 209.479 258.634 210.901C258.492 211.185 258.207 211.398 257.923 211.398Z" fill="white"/>
<path d="M191.112 204.074C190.898 204.074 190.614 203.932 190.542 203.719C190.4 203.506 178.305 184.236 169.197 169.446C152.548 142.354 148.777 137.235 148.065 136.595C147.069 135.742 144.935 134.391 141.662 134.817C126.435 151.954 97.6904 148.185 90.8599 145.625C83.6025 142.852 81.7526 138.87 84.0294 131.333C86.1639 124.436 98.4731 93.0068 98.9711 91.6558C99.1134 91.3002 99.5403 91.0869 99.8961 91.2291C100.252 91.3713 100.465 91.798 100.323 92.1535C100.181 92.509 87.5158 124.933 85.3813 131.76C83.3179 138.515 84.8832 141.786 91.3579 144.274C97.7615 146.692 126.293 150.247 140.737 133.679C140.879 133.537 141.021 133.466 141.164 133.466C144.152 133.04 146.856 133.751 148.99 135.528C150.413 136.737 157.6 147.901 170.407 168.735C178.66 182.174 189.404 199.31 191.396 202.439L200.432 198.599L167.49 126.356C167.347 126 167.49 125.573 167.845 125.431C168.201 125.289 168.628 125.431 168.77 125.787L202.069 198.742C202.14 198.884 202.14 199.097 202.069 199.31C201.998 199.524 201.855 199.666 201.713 199.737L191.467 204.074C191.254 204.074 191.183 204.074 191.112 204.074Z" fill="white"/>
<path d="M135.116 129.982C127.289 129.982 123.234 126.142 122.949 118.605C122.807 113.414 124.443 82.4831 124.585 81.1321C124.585 81.0609 124.585 80.9187 124.657 80.8476C124.657 80.8476 129.281 72.2438 130.349 70.2528C130.42 70.1106 130.491 70.0395 130.633 69.9684C134.76 67.4797 139.741 67.2664 143.583 69.4707C146.856 71.2483 148.777 74.5192 148.848 78.43C148.99 86.3228 145.575 104.953 144.863 109.077C153.188 109.646 176.312 111.281 177.664 111.921C178.376 112.277 178.518 113.201 178.233 115.05C177.806 117.752 175.601 125.644 173.68 125.929C170.976 126.356 144.792 129.84 135.543 129.982C135.329 129.982 135.187 129.982 135.116 129.982ZM125.937 81.4165C125.795 83.8341 124.159 113.628 124.372 118.605C124.585 125.502 128.072 128.702 135.4 128.56C144.579 128.418 170.336 125.005 173.324 124.578C174.533 123.725 177.308 114.836 176.881 113.201C174.818 112.703 156.248 111.281 143.939 110.428C143.725 110.428 143.583 110.286 143.44 110.143C143.298 110.001 143.298 109.788 143.298 109.575C143.369 109.361 147.638 86.9628 147.425 78.43C147.354 75.0169 145.717 72.2438 142.871 70.6795C139.527 68.8307 135.187 68.9729 131.487 71.1061C130.349 73.2393 126.578 80.2788 125.937 81.4165Z" fill="white"/>
<path d="M148.35 80.6343C148.136 80.6343 147.923 80.5632 147.781 80.3499C147.567 79.9944 147.638 79.5677 147.923 79.3544C148.136 79.2122 170.691 63.4266 173.253 60.3691C175.601 57.5959 187.269 39.7483 189.262 36.6196L184.921 31.8555C181.506 36.5485 169.98 52.3341 168.628 53.2585C167.063 54.3251 150.484 60.8668 147.709 61.2935C144.863 61.7912 140.239 61.4357 140.096 61.4357C139.741 61.4357 139.385 61.0801 139.456 60.6535C139.527 60.2269 139.812 59.9424 140.239 60.0136C140.31 60.0136 144.863 60.3691 147.567 59.8713C150.342 59.4447 166.778 52.8318 167.916 52.0497C168.912 51.2675 178.518 38.3262 184.352 30.2912C184.495 30.149 184.708 30.0068 184.921 30.0068C185.135 30.0068 185.348 30.0779 185.491 30.2201L190.827 36.0508C191.04 36.2641 191.112 36.6196 190.898 36.9041C190.329 37.7573 177.095 58.1648 174.462 61.2935C171.759 64.4221 149.773 79.8522 148.848 80.4921C148.634 80.6343 148.492 80.6343 148.35 80.6343Z" fill="white"/>
<path d="M144.863 71.675C144.792 71.675 144.721 71.675 144.65 71.675C144.294 71.6038 144.01 71.1772 144.152 70.8217L146.713 60.8668C146.785 60.5113 147.211 60.2269 147.567 60.3691C147.923 60.4402 148.208 60.8668 148.065 61.2224L145.504 71.1772C145.433 71.4616 145.148 71.675 144.863 71.675Z" fill="white"/>
<path d="M154.611 58.8047C154.469 58.8047 154.327 58.7336 154.184 58.6625C153.829 58.4492 153.757 58.0226 153.971 57.667C153.971 57.667 155.465 55.3205 155.394 51.6941C155.323 48.6366 150.413 41.4548 148.492 38.9661C148.279 38.6817 148.35 38.184 148.635 37.9707C148.919 37.7573 149.417 37.8284 149.631 38.1129C149.915 38.4684 156.675 47.57 156.817 51.6941C156.959 55.8183 155.252 58.3781 155.18 58.5203C155.038 58.7336 154.825 58.8047 154.611 58.8047Z" fill="white"/>
<path d="M181.649 156.362C181.578 156.362 181.506 156.362 181.435 156.362C181.079 156.22 180.866 155.865 181.008 155.438C181.578 153.731 182.076 152.167 182.503 151.1C183.997 146.976 183.854 143.492 182.076 140.577C179.728 136.879 175.316 135.244 171.901 134.888C171.545 134.817 171.189 134.533 171.261 134.106C171.332 133.751 171.616 133.466 172.043 133.466C175.743 133.822 180.653 135.67 183.285 139.795C185.277 142.994 185.491 147.047 183.854 151.527C183.427 152.594 182.929 154.158 182.36 155.793C182.218 156.22 181.933 156.362 181.649 156.362Z" fill="white"/>
<path d="M164.288 239.414C164.217 239.414 164.145 239.414 164.074 239.414L154.184 236.641C153.9 236.57 153.686 236.286 153.686 235.93L154.611 159.349C149.346 162.477 126.151 175.49 106.584 173.428C98.5442 172.361 92.5675 168.806 88.7965 162.975C84.0294 155.58 84.314 146.265 85.5947 142.141C85.737 141.786 86.0928 141.572 86.4485 141.643C86.8043 141.786 87.0177 142.141 86.9466 142.497C85.737 146.407 85.5235 155.153 90.0061 162.122C93.4925 167.597 99.1134 170.868 106.727 171.935C108.15 172.077 109.573 172.148 110.996 172.148C131.701 172.148 154.682 157.571 154.896 157.429C155.109 157.287 155.394 157.287 155.607 157.429C155.821 157.571 155.963 157.784 155.963 158.069L155.109 235.361L163.719 237.779C164.501 232.801 168.841 205.71 173.537 183.596C173.893 181.961 174.249 180.254 174.676 178.476C174.747 178.121 175.174 177.836 175.53 177.979C175.885 178.05 176.17 178.476 176.028 178.832C175.601 180.538 175.245 182.245 174.889 183.88C169.766 208.128 165.07 238.49 164.999 238.774C164.999 238.988 164.857 239.13 164.715 239.272C164.572 239.343 164.43 239.414 164.288 239.414Z" fill="white"/>
<path d="M152.69 241.832C152.69 241.832 171.189 250.578 173.893 252C176.597 243.752 168.699 240.054 168.699 240.054L153.829 232.446L152.69 241.832Z" fill="white"/>
<path d="M194.385 209.834C194.385 209.834 212.884 200.661 215.73 199.31C211.461 192.2 202.709 196.679 202.709 196.679L189.689 202.581L194.385 209.834Z" fill="white"/>
<path d="M112.134 135.528C112.063 135.528 112.063 135.528 111.992 135.528C97.9039 133.111 97.8328 121.094 97.8328 120.951C97.8328 120.525 98.1885 120.24 98.5443 120.24C98.9712 120.24 99.2558 120.596 99.2558 120.951C99.2558 121.378 99.3981 131.902 112.276 134.106C112.632 134.177 112.917 134.533 112.846 134.959C112.774 135.315 112.419 135.528 112.134 135.528Z" fill="white"/>
<path d="M111.992 126.924C111.921 126.924 111.849 126.924 111.707 126.853C101.034 122.729 103.88 108.081 103.88 107.939C103.952 107.584 104.307 107.299 104.734 107.37C105.09 107.441 105.375 107.797 105.303 108.223C105.303 108.366 102.671 121.876 112.205 125.573C112.561 125.716 112.774 126.142 112.632 126.498C112.561 126.782 112.276 126.924 111.992 126.924Z" fill="white"/>
<path d="M149.275 35.553C148.563 30.149 138.531 25.9537 131.914 31.5711C125.297 37.1885 122.949 46.7878 118.253 52.4052C113.557 58.0226 97.0501 66.7686 93.706 74.0214C90.3619 81.3454 92.781 87.7449 97.477 91.798C102.244 95.851 114.411 95.2822 120.53 88.8826C123.732 85.5406 127.93 76.2968 131.985 68.333C135.756 60.9379 139.029 57.1693 139.456 54.7517C139.883 52.3341 137.962 54.8939 137.82 51.5519C137.677 48.281 141.875 46.3612 144.223 47.2856C146.571 48.2099 149.986 40.9571 149.275 35.553Z" fill="white"/>
<path d="M174.96 123.867C174.605 123.867 174.32 123.653 174.249 123.298C174.178 122.942 174.391 122.516 174.818 122.445C174.818 122.445 176.312 122.089 179.372 121.52C182.431 120.88 183.712 120.098 184.352 118.321C184.85 116.898 185.277 116.472 185.989 115.832C186.416 115.476 186.914 115.05 187.554 114.125C189.048 112.205 187.412 109.219 187.341 109.148C187.127 108.792 187.269 108.366 187.625 108.152C187.981 107.939 188.408 108.081 188.621 108.437C188.693 108.579 190.756 112.348 188.693 114.979C187.91 115.974 187.341 116.472 186.914 116.827C186.345 117.325 186.06 117.609 185.633 118.747C184.637 121.378 182.574 122.231 179.585 122.871C176.526 123.511 175.032 123.796 175.032 123.796C175.032 123.867 175.031 123.867 174.96 123.867Z" fill="white"/>
<path d="M177.522 114.339V112.916C177.522 112.916 181.791 112.845 183 112.845C183.783 112.845 184.423 112.205 184.566 112.063L193.175 100.331L184.352 97.1309L173.751 112.419C173.537 112.774 173.11 112.845 172.755 112.632C172.399 112.419 172.328 111.992 172.541 111.637L183.427 95.9221C183.641 95.6377 183.925 95.5666 184.281 95.6377L194.456 99.3352C194.669 99.4063 194.812 99.5485 194.883 99.7619C194.954 99.9752 194.883 100.188 194.811 100.402L185.633 112.988C185.633 112.988 185.633 113.059 185.562 113.059C185.491 113.13 184.423 114.267 183 114.267C181.791 114.267 177.522 114.339 177.522 114.339Z" fill="white"/>
<path d="M186.273 106.588C186.202 106.588 186.06 106.588 185.989 106.517C183.854 105.593 181.435 104.597 181.151 104.455C180.795 104.313 180.581 103.957 180.653 103.602C180.724 103.246 181.079 103.033 181.435 103.104C181.649 103.175 183.356 103.886 186.487 105.237C186.843 105.379 186.985 105.806 186.843 106.161C186.843 106.446 186.558 106.588 186.273 106.588Z" fill="white"/>
<path d="M188.622 103.459C188.55 103.459 188.479 103.459 188.337 103.388L183.143 101.397C182.787 101.255 182.574 100.828 182.716 100.473C182.858 100.117 183.285 99.9041 183.641 100.046L188.835 102.037C189.191 102.179 189.404 102.606 189.262 102.962C189.191 103.317 188.906 103.459 188.622 103.459Z" fill="white"/>
<path d="M140.95 135.315C140.595 135.315 140.239 135.03 140.239 134.604L140.096 129.2C140.096 128.773 140.381 128.489 140.808 128.489C141.164 128.489 141.519 128.773 141.519 129.2L141.662 134.604C141.733 134.959 141.377 135.315 140.95 135.315C141.021 135.315 140.95 135.315 140.95 135.315Z" fill="white"/>
<path d="M189.475 36.4774C189.262 36.4774 189.12 36.4063 188.977 36.2641C188.693 35.9797 188.693 35.553 188.977 35.2686C189.618 34.6287 191.468 32.851 192.037 31.8555C192.748 30.5045 193.104 29.509 192.748 28.3002C192.392 27.1625 191.254 26.9492 191.254 26.9492C191.041 26.9492 190.898 26.807 190.756 26.6648C190.614 26.5226 190.614 26.3093 190.685 26.0959C190.685 26.0959 191.183 24.3183 191.752 22.3273C192.037 21.2607 191.61 20.1941 191.325 19.6964C190.543 21.2607 188.408 26.807 186.558 31.8555C186.416 32.2111 185.989 32.4244 185.633 32.2822C185.277 32.14 185.064 31.7133 185.206 31.3578C188.266 23.1095 190.044 18.7009 190.471 18.2743C190.756 17.9898 191.254 17.9187 191.823 18.2032C192.748 18.772 193.673 20.8341 193.104 22.6828C192.748 23.8916 192.392 25.0293 192.25 25.7404C192.891 26.0248 193.744 26.5937 194.171 27.8025C194.812 29.7223 194.1 31.2156 193.389 32.4955C192.606 33.8465 190.187 36.1219 190.116 36.193C189.831 36.4063 189.689 36.4774 189.475 36.4774Z" fill="white"/>
</g>
<defs>
<clipPath id="clip0">
<rect width="293" height="252" fill="white"/>
</clipPath>
</defs>
</svg>
